<?xml version="1.0" encoding="utf-8"?>
<!-- Generator: Adobe Illustrator 16.0.0, SVG Export Plug-In . SVG Version: 6.00 Build 0)  -->
<!DOCTYPE svg PUBLIC "-//W3C//DTD SVG 1.1//EN" "http://www.w3.org/Graphics/SVG/1.1/DTD/svg11.dtd">
<svg version="1.1" id="Layer_1" xmlns="http://www.w3.org/2000/svg" xmlns:xlink="http://www.w3.org/1999/xlink" x="0px" y="0px"
	 width="757.666px" height="514px" viewBox="0 0 757.666 514" enable-background="new 0 0 757.666 514" xml:space="preserve">
<g id="XMLID_193_">
	<g id="XMLID_5_">
		<g id="XMLID_4_">
			<path id="XMLID_841_" fill="#1F2421" d="M20.15,52.574c-0.323,1.371-1.818,2.107-3.102,1.527
				c-5.022-2.271-7.991-7.297-6.837-12.197c1.153-4.9,6.053-8.073,11.561-7.865c1.407,0.054,2.417,1.379,2.094,2.75L20.15,52.574z"
				/>
		</g>
		<g id="XMLID_6_">
			<path id="XMLID_840_" fill="#1F2421" d="M42.641,25.17c-1.371-0.323-2.106-1.818-1.526-3.101
				c2.271-5.022,7.297-7.991,12.197-6.837c4.9,1.154,8.074,6.053,7.865,11.561c-0.053,1.408-1.378,2.417-2.75,2.095L42.641,25.17z"
				/>
		</g>
	</g>
	<g id="XMLID_645_">
		<path id="XMLID_7_" fill="#1F2421" d="M33.469,31.326c-10.318,6.385-13.506,19.925-7.121,30.243
			c6.385,10.317,19.925,13.506,30.242,7.121c10.318-6.385,13.506-19.925,7.121-30.243C57.326,28.129,43.786,24.941,33.469,31.326z
			 M54.373,65.105c-8.338,5.16-19.281,2.583-24.44-5.754c-5.16-8.338-2.583-19.281,5.754-24.441
			c8.338-5.16,19.281-2.583,24.441,5.755C65.288,49.003,62.711,59.946,54.373,65.105z"/>
	</g>
	<g id="XMLID_3_">
		<circle id="XMLID_839_" fill="#1F2421" cx="45.03" cy="50.008" r="2.761"/>
	</g>
	<g id="XMLID_8_">
		
			<rect id="XMLID_838_" x="31.368" y="28.632" transform="matrix(0.8504 -0.5262 0.5262 0.8504 -11.4961 22.3204)" fill="#1F2421" width="4.259" height="5.483"/>
	</g>
	<g id="XMLID_9_">
		<path id="XMLID_837_" fill="#1F2421" d="M33.777,28.201l-3.244,2.007c-0.485,0.3-1.122,0.15-1.422-0.334l0,0
			c-0.3-0.485-0.15-1.123,0.335-1.422l3.244-2.007c0.485-0.3,1.122-0.15,1.422,0.334v0C34.413,27.263,34.262,27.9,33.777,28.201z"/>
	</g>
	<g id="XMLID_10_">
		<g id="XMLID_11_">
			<path id="XMLID_836_" fill="#1F2421" d="M48.184,78.173l-3.3,2.042c-0.711,0.44-1.644,0.031-1.801-0.792l-1.389-7.267
				c-0.093-0.486,0.124-0.979,0.545-1.239l3.299-2.042c0.712-0.44,1.644-0.03,1.801,0.791l1.389,7.267
				C48.821,77.42,48.604,77.913,48.184,78.173z"/>
		</g>
		<g id="XMLID_12_">
			<path id="XMLID_835_" fill="#1F2421" d="M68.829,65.398l3.299-2.042c0.712-0.44,0.761-1.458,0.096-1.965l-5.884-4.485
				c-0.394-0.3-0.932-0.326-1.352-0.065l-3.3,2.042c-0.711,0.44-0.761,1.458-0.095,1.965l5.884,4.485
				C67.87,65.632,68.408,65.658,68.829,65.398z"/>
		</g>
	</g>
	<g id="XMLID_13_">
		<path id="XMLID_716_" fill="#1F2421" d="M52.895,46.675l-8.288,5.129l-6.761-10.925c-0.379-0.612-0.189-1.417,0.423-1.795
			c0.613-0.379,1.417-0.189,1.795,0.423l5.388,8.707l6.07-3.756c0.612-0.379,1.416-0.189,1.795,0.423
			C53.696,45.492,53.507,46.296,52.895,46.675z"/>
	</g>
</g>
<g id="XMLID_227_">
	<g id="XMLID_184_">
		<path id="XMLID_40_" fill="#1F2421" d="M171.478,92.573c-2.755,10.958-10.505,18.603-17.863,18.041
			c6.749,2.986,9.961,13.388,7.206,24.345l-28.307-7.117c2.755-10.958,10.505-18.604,17.863-18.042
			c-6.749-2.985-9.96-13.386-7.206-24.344L171.478,92.573 M174.431,90.806l-2.36-0.593l-28.306-7.118l-2.36-0.593l-0.593,2.36
			c-1.431,5.691-1.407,11.535,0.068,16.454c0.829,2.766,2.082,5.141,3.673,7.019c-2.291,0.902-4.518,2.402-6.556,4.448
			c-3.626,3.636-6.411,8.773-7.842,14.465l-0.593,2.36l2.36,0.593l28.306,7.118l2.36,0.593l0.593-2.36
			c1.431-5.692,1.407-11.535-0.068-16.454c-0.829-2.766-2.082-5.141-3.672-7.02c2.289-0.901,4.517-2.402,6.556-4.447
			c3.626-3.637,6.411-8.773,7.842-14.465L174.431,90.806L174.431,90.806z"/>
	</g>
	<g id="XMLID_175_">
		
			<rect id="XMLID_811_" x="133.894" y="82.912" transform="matrix(0.9698 0.2438 -0.2438 0.9698 25.7451 -35.9508)" fill="#1F2421" width="48.37" height="6.195"/>
	</g>
	<g id="XMLID_81_">
		
			<rect id="XMLID_810_" x="121.726" y="131.306" transform="matrix(0.9698 0.2438 -0.2438 0.9698 37.1784 -31.5229)" fill="#1F2421" width="48.37" height="6.195"/>
	</g>
	<g id="XMLID_31_">
		<g id="XMLID_84_">
			
				<rect id="XMLID_682_" x="131.988" y="80.494" transform="matrix(0.9698 0.2438 -0.2438 0.9698 29.7187 -29.2541)" fill="#1F2421" width="2.129" height="49.9"/>
		</g>
		<g id="XMLID_41_">
			
				<rect id="XMLID_681_" x="169.874" y="90.02" transform="matrix(0.9698 0.2438 -0.2438 0.9698 33.1838 -38.2023)" fill="#1F2421" width="2.129" height="49.9"/>
		</g>
	</g>
	<g id="XMLID_42_">
		<path id="XMLID_809_" fill="#1F2421" d="M133.562,128.105l9.792-5.778c3.992-2.356,8.12-1.318,10.523,2.646l5.895,9.722
			L133.562,128.105z"/>
	</g>
	<g id="XMLID_43_">
		<path id="XMLID_808_" fill="#1F2421" d="M163.503,103.279l-2.848,2.17c-5.078,3.869-11.396,2.28-14.041-3.53l-1.483-3.259
			L163.503,103.279z"/>
	</g>
</g>
<g id="XMLID_226_">
	<g id="XMLID_651_">
		<path id="XMLID_48_" fill="#1F2421" d="M719.842,442.169h-53.444c-4.521,0-8.187,3.666-8.187,8.188v27.908
			c0,4.523,3.665,8.188,8.187,8.188h53.444c4.521,0,8.188-3.664,8.188-8.188v-27.908
			C728.029,445.835,724.362,442.169,719.842,442.169z M724.106,477.846c0,2.586-2.097,4.684-4.685,4.684h-52.605
			c-2.587,0-4.685-2.098-4.685-4.684v-27.069c0-2.588,2.098-4.685,4.685-4.685h52.605c2.588,0,4.685,2.097,4.685,4.685V477.846z"/>
	</g>
	<g id="XMLID_108_">
		<path id="XMLID_233_" fill="#1F2421" d="M670.431,471.181h-2.651l-0.863-0.794l0.026-0.03l-0.627-0.683v-4.491l0.627-0.696
			l-0.627-0.657v-4.503l0.78-0.881l0.014,0.014l0.67-0.64h2.651l0.683,0.626l0.642-0.626h2.65l0.864,0.794l-0.014,0.014l0.613,0.669
			v4.533l-0.627,0.698l0.627,0.655v4.491l-0.779,0.906l-0.03-0.027l-0.654,0.628h-2.65l-0.685-0.628L670.431,471.181z
			 M668.525,469.549h1.908l0.684,0.628l0.642-0.628h2.507v-4.366l0.614-0.696l-0.614-0.657v-2.454l-1.813,2.637h-0.894v-1.484
			l2.102-3.077h-1.908l-0.685-0.627l-0.641,0.627h-2.509v4.379l-0.612,0.698l0.612,0.655v2.441l1.815-2.638h0.891v1.484
			L668.525,469.549z"/>
		<path id="XMLID_239_" fill="#1F2421" d="M681.588,471.181h-2.649l-0.865-0.794l0.865-0.838h2.649l0.683,0.628l0.645-0.628h2.508
			v-4.227h-2.508l-0.686-0.641l-0.642,0.641h-2.649l-0.865-0.809l0.027-0.014l-0.627-0.671v-4.503l0.782-0.881l0.013,0.014
			l0.67-0.64h2.649l0.683,0.626l0.645-0.626h2.648l0.864,0.794l-0.013,0.014l0.614,0.669v4.533l-0.628,0.698l0.628,0.655v4.491
			l-0.782,0.906l-0.027-0.027l-0.656,0.628h-2.648l-0.686-0.628L681.588,471.181z M679.077,463.689h2.511l0.683,0.628l0.645-0.628
			h2.508v-4.239h-2.508l-0.686-0.627l-0.642,0.627h-2.511V463.689z"/>
		<path id="XMLID_659_" fill="#1F2421" d="M693.417,463.969c-0.298,0-0.542-0.115-0.732-0.349c-0.19-0.232-0.285-0.502-0.285-0.81
			c0-0.306,0.095-0.582,0.285-0.821c0.19-0.242,0.435-0.364,0.732-0.364c0.296,0,0.539,0.122,0.725,0.364
			c0.186,0.239,0.279,0.516,0.279,0.821c0,0.308-0.094,0.577-0.279,0.81C693.956,463.854,693.713,463.969,693.417,463.969z
			 M693.417,467.387c-0.298,0-0.545-0.131-0.739-0.393c-0.187-0.233-0.278-0.505-0.278-0.814c0-0.316,0.092-0.591,0.278-0.82
			c0.186-0.229,0.431-0.343,0.739-0.343c0.288,0,0.526,0.118,0.718,0.357c0.189,0.238,0.286,0.506,0.286,0.806
			s-0.097,0.576-0.286,0.828C693.943,467.261,693.705,467.387,693.417,467.387z"/>
		<path id="XMLID_662_" fill="#1F2421" d="M703.905,471.181h-2.649l-0.865-0.794l0.027-0.03l-0.627-0.683v-4.491l0.627-0.696
			l-0.627-0.657v-4.503l0.781-0.881l0.014,0.014l0.67-0.64h2.649l0.683,0.626l0.642-0.626h2.651l0.864,0.794l-0.015,0.014
			l0.614,0.669v4.533l-0.628,0.698l0.628,0.655v4.491l-0.78,0.906l-0.027-0.027l-0.656,0.628h-2.651l-0.683-0.628L703.905,471.181z
			 M702.001,469.549h1.909l0.683,0.628l0.64-0.628h2.508v-4.366l0.614-0.696l-0.614-0.657v-2.454l-1.813,2.637h-0.892v-1.484
			l2.1-3.077h-1.91l-0.682-0.627l-0.642,0.627h-2.508v4.379l-0.614,0.698l0.614,0.655v2.441l1.813-2.638h0.894v1.484
			L702.001,469.549z"/>
		<path id="XMLID_665_" fill="#1F2421" d="M715.063,471.181h-2.65l-0.865-0.794l0.865-0.838h2.65l0.685,0.628l0.641-0.628h2.512
			v-4.227h-2.512l-0.684-0.641l-0.642,0.641h-2.65l-0.865-0.809l0.029-0.014l-0.628-0.671v-4.503l0.781-0.881l0.014,0.014
			l0.669-0.64h2.65l0.685,0.626l0.641-0.626h2.65l0.864,0.794l-0.015,0.014l0.614,0.669v4.533l-0.626,0.698l0.626,0.655v4.491
			l-0.781,0.906l-0.027-0.027l-0.655,0.628h-2.65l-0.684-0.628L715.063,471.181z M712.552,463.689h2.512l0.685,0.628l0.641-0.628
			h2.512v-4.239h-2.512l-0.684-0.627l-0.642,0.627h-2.512V463.689z"/>
	</g>
	<g id="XMLID_183_">
		<g id="XMLID_50_">
			<path id="XMLID_805_" fill="#1F2421" d="M670.905,492.013h-0.418c-0.966,0-1.753-0.783-1.753-1.751v-3.715
				c0-0.967,0.787-1.751,1.753-1.751h0.418c0.969,0,1.752,0.784,1.752,1.751v3.715C672.657,491.229,671.874,492.013,670.905,492.013
				z"/>
		</g>
		<g id="XMLID_185_">
			<path id="XMLID_804_" fill="#1F2421" d="M715.753,492.013h-0.42c-0.967,0-1.752-0.783-1.752-1.751v-3.715
				c0-0.967,0.785-1.751,1.752-1.751h0.42c0.967,0,1.751,0.784,1.751,1.751v3.715C717.504,491.229,716.72,492.013,715.753,492.013z"
				/>
		</g>
	</g>
	<g id="XMLID_187_">
		<g id="XMLID_186_">
			<circle id="XMLID_803_" fill="#1F2421" cx="713.581" cy="442.826" r="2.95"/>
		</g>
		<g id="XMLID_188_">
			<circle id="XMLID_802_" fill="#1F2421" cx="705.54" cy="442.826" r="2.95"/>
		</g>
	</g>
</g>
<g>
	<path fill="#1F2421" d="M631.793,229.94l-66.321,33.188c-3.096,1.549-6.876,0.29-8.426-2.806l-26.052-52.06
		c-1.55-3.097-0.291-6.876,2.805-8.426l66.32-33.188c3.097-1.549,6.877-0.291,8.426,2.806l26.053,52.06
		C636.146,224.61,634.889,228.391,631.793,229.94z M534.939,202.115c-1.84,0.921-2.588,3.167-1.667,5.007l26.052,52.06
		c0.921,1.839,3.167,2.588,5.008,1.667l66.32-33.188c1.84-0.921,2.586-3.167,1.666-5.007l-26.053-52.06
		c-0.921-1.84-3.166-2.589-5.006-1.668L534.939,202.115z"/>
	<g>
		<path fill="#1F2421" d="M542.099,204c-0.629,0.314-1.395,0.06-1.71-0.569l-3.671-7.335c-0.314-0.629-0.059-1.395,0.57-1.709
			c0.628-0.315,1.395-0.061,1.709,0.569l3.671,7.335C542.983,202.918,542.728,203.685,542.099,204z"/>
		<path fill="#1F2421" d="M542.825,205.451c-1.428,0.715-3.172,0.134-3.887-1.295c-0.715-1.428-0.134-3.172,1.294-3.886
			c1.428-0.715,3.172-0.134,3.887,1.294C544.834,202.992,544.253,204.736,542.825,205.451z M541.373,202.548
			c-0.172,0.086-0.243,0.296-0.157,0.468c0.172,0.344,0.797,0.033,0.625-0.313C541.754,202.532,541.544,202.463,541.373,202.548z"/>
		<path fill="#1F2421" d="M551.495,199.297c-0.629,0.314-1.395,0.06-1.709-0.57l-3.671-7.335c-0.315-0.629-0.061-1.395,0.568-1.709
			c0.63-0.315,1.395-0.061,1.71,0.569l3.671,7.335C552.379,198.217,552.125,198.982,551.495,199.297z"/>
		<path fill="#1F2421" d="M552.222,200.749c-1.429,0.714-3.172,0.134-3.888-1.295c-0.714-1.428-0.134-3.172,1.295-3.887
			c1.428-0.714,3.172-0.134,3.886,1.294C554.229,198.29,553.649,200.034,552.222,200.749z M550.769,197.846
			c-0.171,0.086-0.242,0.295-0.155,0.467c0.172,0.344,0.796,0.033,0.623-0.312C551.15,197.83,550.94,197.76,550.769,197.846z"/>
		<path fill="#1F2421" d="M560.891,194.595c-0.629,0.315-1.395,0.06-1.71-0.569l-3.671-7.335c-0.314-0.629-0.059-1.395,0.57-1.709
			s1.395-0.06,1.709,0.569l3.671,7.335C561.775,193.515,561.521,194.28,560.891,194.595z"/>
		<path fill="#1F2421" d="M561.617,196.047c-1.428,0.714-3.172,0.134-3.887-1.295c-0.715-1.428-0.134-3.172,1.294-3.887
			c1.428-0.714,3.172-0.134,3.887,1.294C563.626,193.588,563.045,195.333,561.617,196.047z M560.165,193.145
			c-0.171,0.085-0.242,0.295-0.156,0.467c0.172,0.344,0.796,0.032,0.624-0.312C560.546,193.127,560.337,193.058,560.165,193.145z"/>
		<path fill="#1F2421" d="M570.287,189.894c-0.628,0.314-1.395,0.059-1.709-0.57l-3.671-7.335c-0.315-0.629-0.06-1.395,0.568-1.709
			c0.63-0.315,1.396-0.061,1.711,0.568l3.671,7.335C571.172,188.812,570.917,189.578,570.287,189.894z"/>
		<path fill="#1F2421" d="M571.014,191.345c-1.428,0.715-3.172,0.134-3.888-1.295c-0.714-1.428-0.134-3.172,1.294-3.886
			c1.429-0.715,3.173-0.134,3.887,1.294C573.021,188.886,572.441,190.63,571.014,191.345z M569.561,188.442
			c-0.171,0.085-0.242,0.295-0.155,0.467c0.172,0.344,0.796,0.033,0.623-0.312C569.942,188.426,569.732,188.356,569.561,188.442z"/>
		<path fill="#1F2421" d="M579.684,185.191c-0.629,0.314-1.395,0.06-1.71-0.569l-3.671-7.335c-0.314-0.629-0.059-1.395,0.57-1.709
			c0.628-0.315,1.395-0.061,1.709,0.569l3.671,7.335C580.568,184.11,580.313,184.876,579.684,185.191z"/>
		<path fill="#1F2421" d="M580.41,186.643c-1.428,0.714-3.173,0.134-3.888-1.294c-0.715-1.428-0.133-3.172,1.295-3.887
			c1.428-0.714,3.171-0.133,3.886,1.294C582.418,184.184,581.838,185.928,580.41,186.643z M578.958,183.74
			c-0.172,0.086-0.243,0.296-0.157,0.468c0.086,0.173,0.297,0.243,0.469,0.156c0.172-0.085,0.24-0.295,0.154-0.468
			C579.338,183.724,579.129,183.654,578.958,183.74z"/>
		<path fill="#1F2421" d="M589.08,180.489c-0.63,0.315-1.396,0.06-1.71-0.569l-3.671-7.335c-0.315-0.629-0.061-1.394,0.569-1.709
			c0.629-0.314,1.395-0.06,1.71,0.569l3.671,7.335C589.964,179.408,589.709,180.174,589.08,180.489z"/>
		<path fill="#1F2421" d="M589.807,181.94c-1.43,0.715-3.173,0.134-3.889-1.294c-0.714-1.428-0.134-3.172,1.295-3.887
			c1.429-0.714,3.172-0.133,3.886,1.295C591.813,179.482,591.234,181.226,589.807,181.94z M588.354,179.038
			c-0.172,0.086-0.243,0.295-0.156,0.468c0.172,0.344,0.796,0.031,0.624-0.313C588.735,179.021,588.525,178.952,588.354,179.038z"/>
		<path fill="#1F2421" d="M598.476,175.787c-0.629,0.314-1.395,0.06-1.71-0.569l-3.671-7.335c-0.314-0.629-0.059-1.395,0.57-1.709
			c0.628-0.315,1.395-0.061,1.709,0.569l3.671,7.335C599.36,174.706,599.104,175.472,598.476,175.787z"/>
		<path fill="#1F2421" d="M599.202,177.238c-1.428,0.715-3.173,0.134-3.888-1.294c-0.715-1.428-0.133-3.172,1.295-3.887
			c1.428-0.715,3.171-0.133,3.886,1.294C601.21,174.78,600.63,176.524,599.202,177.238z M597.75,174.336
			c-0.172,0.086-0.243,0.296-0.157,0.468c0.172,0.344,0.796,0.033,0.623-0.312C598.13,174.32,597.921,174.25,597.75,174.336z"/>
	</g>
	<path fill="#1F2421" d="M582.103,208.635l-3.897,1.95c-0.629,0.314-1.394,0.06-1.708-0.569l-1.95-3.896
		c-0.314-0.629-0.061-1.395,0.568-1.709l3.896-1.95c0.629-0.314,1.396-0.06,1.71,0.569l1.95,3.897
		C582.986,207.555,582.73,208.32,582.103,208.635z M578.204,207.737l1.618-0.81l-0.81-1.618l-1.618,0.81L578.204,207.737z"/>
	<path fill="#1F2421" d="M590.283,204.541l-3.896,1.95c-0.63,0.315-1.395,0.06-1.709-0.569l-1.95-3.897
		c-0.314-0.628-0.061-1.394,0.569-1.709l3.896-1.95c0.629-0.314,1.394-0.059,1.708,0.57l1.95,3.897
		C591.166,203.461,590.912,204.227,590.283,204.541z M586.386,203.643l1.618-0.81l-0.81-1.617l-1.617,0.809L586.386,203.643z"/>
	<path fill="#1F2421" d="M598.463,200.448l-3.896,1.95c-0.629,0.314-1.396,0.061-1.71-0.568l-1.95-3.897
		c-0.314-0.628-0.059-1.395,0.569-1.709l3.896-1.95c0.63-0.315,1.395-0.06,1.71,0.569l1.949,3.896
		C599.348,199.368,599.093,200.133,598.463,200.448z M594.566,199.549l1.618-0.81l-0.81-1.617l-1.618,0.81L594.566,199.549z"/>
	<path fill="#1F2421" d="M606.645,196.354l-3.896,1.949c-0.629,0.315-1.395,0.061-1.709-0.568l-1.95-3.896
		c-0.315-0.629-0.06-1.395,0.569-1.71l3.896-1.949c0.629-0.315,1.396-0.06,1.71,0.569l1.95,3.896
		C607.528,195.273,607.272,196.039,606.645,196.354z M602.748,195.455l1.616-0.809l-0.81-1.617l-1.616,0.809L602.748,195.455z"/>
	<g>
		<path fill="#1F2421" d="M561.833,229.457l-3.896,1.949c-0.63,0.315-1.395,0.061-1.709-0.568l-1.95-3.896
			c-0.315-0.629-0.061-1.395,0.569-1.71l3.895-1.949c0.629-0.315,1.396-0.061,1.71,0.569l1.95,3.896
			C562.717,228.376,562.461,229.142,561.833,229.457z M557.937,228.556l1.616-0.809l-0.81-1.618l-1.616,0.809L557.937,228.556z"/>
		<path fill="#1F2421" d="M570.014,225.362l-3.895,1.949c-0.631,0.315-1.395,0.061-1.71-0.569l-1.95-3.896
			c-0.314-0.629-0.061-1.394,0.57-1.709l3.895-1.949c0.629-0.314,1.395-0.06,1.709,0.569l1.95,3.896
			C570.897,224.283,570.643,225.047,570.014,225.362z M566.117,224.462l1.616-0.809l-0.81-1.618l-1.616,0.809L566.117,224.462z"/>
		<path fill="#1F2421" d="M578.194,221.269l-3.896,1.95c-0.629,0.314-1.395,0.06-1.709-0.569l-1.95-3.897
			c-0.314-0.629-0.06-1.395,0.568-1.709l3.897-1.95c0.629-0.314,1.395-0.06,1.71,0.569l1.949,3.897
			C579.079,220.188,578.823,220.954,578.194,221.269z M574.297,220.369l1.618-0.81l-0.81-1.618l-1.618,0.81L574.297,220.369z"/>
		<path fill="#1F2421" d="M586.375,217.174l-3.896,1.95c-0.629,0.314-1.394,0.06-1.709-0.569l-1.949-3.897
			c-0.315-0.629-0.061-1.394,0.568-1.709l3.896-1.95c0.629-0.314,1.396-0.06,1.71,0.569l1.95,3.896
			C587.26,216.095,587.004,216.86,586.375,217.174z M582.477,216.276l1.619-0.81l-0.81-1.618l-1.618,0.81L582.477,216.276z"/>
		<path fill="#1F2421" d="M594.557,213.081l-3.896,1.949c-0.63,0.315-1.395,0.061-1.709-0.569l-1.95-3.896
			c-0.314-0.629-0.061-1.394,0.568-1.709l3.896-1.95c0.629-0.315,1.393-0.06,1.708,0.57l1.95,3.896
			C595.439,212.001,595.186,212.766,594.557,213.081z M590.659,212.181l1.617-0.81l-0.81-1.618l-1.617,0.81L590.659,212.181z"/>
		<path fill="#1F2421" d="M602.736,208.987l-3.896,1.949c-0.628,0.315-1.395,0.061-1.709-0.568l-1.95-3.896
			c-0.314-0.629-0.06-1.395,0.569-1.709l3.896-1.95c0.629-0.315,1.395-0.061,1.709,0.569l1.95,3.896
			C603.621,207.907,603.366,208.672,602.736,208.987z M598.84,208.087l1.618-0.81l-0.81-1.618l-1.618,0.81L598.84,208.087z"/>
		<path fill="#1F2421" d="M610.917,204.893l-3.896,1.95c-0.629,0.314-1.395,0.061-1.71-0.568l-1.949-3.897
			c-0.315-0.629-0.06-1.395,0.569-1.709l3.896-1.95c0.629-0.314,1.396-0.06,1.71,0.569l1.95,3.897
			C611.802,203.813,611.546,204.579,610.917,204.893z M607.021,203.994l1.616-0.809l-0.809-1.618l-1.617,0.809L607.021,203.994z"/>
	</g>
	<g>
		<path fill="#1F2421" d="M566.105,237.996l-3.895,1.949c-0.63,0.315-1.395,0.061-1.71-0.569l-1.949-3.896
			c-0.315-0.63-0.061-1.396,0.568-1.71l3.896-1.949c0.629-0.314,1.395-0.06,1.71,0.57l1.949,3.896
			C566.99,236.916,566.734,237.681,566.105,237.996z M562.21,237.096l1.616-0.808l-0.81-1.619l-1.616,0.809L562.21,237.096z"/>
		<path fill="#1F2421" d="M574.287,233.901l-3.895,1.949c-0.631,0.315-1.396,0.061-1.711-0.569l-1.949-3.896
			c-0.315-0.63-0.062-1.395,0.569-1.71l3.895-1.949c0.629-0.315,1.395-0.06,1.71,0.57l1.949,3.896
			C575.171,232.822,574.916,233.587,574.287,233.901z M570.391,233.002l1.616-0.809l-0.81-1.618l-1.616,0.809L570.391,233.002z"/>
		<path fill="#1F2421" d="M582.468,229.808l-3.897,1.95c-0.628,0.315-1.394,0.061-1.709-0.57l-1.949-3.896
			c-0.315-0.63-0.061-1.395,0.568-1.71l3.896-1.95c0.629-0.315,1.395-0.061,1.71,0.57l1.95,3.896
			C583.353,228.728,583.097,229.493,582.468,229.808z M578.57,228.909l1.618-0.81l-0.81-1.618l-1.618,0.81L578.57,228.909z"/>
		<path fill="#1F2421" d="M590.648,225.714l-3.896,1.95c-0.629,0.315-1.394,0.061-1.709-0.57l-1.949-3.896
			c-0.315-0.63-0.061-1.396,0.567-1.71l3.897-1.95c0.629-0.314,1.395-0.06,1.71,0.57l1.949,3.896
			C591.533,224.634,591.277,225.399,590.648,225.714z M586.751,224.815l1.618-0.81l-0.811-1.619l-1.618,0.81L586.751,224.815z"/>
		<path fill="#1F2421" d="M598.83,221.62l-3.896,1.95c-0.629,0.315-1.394,0.06-1.709-0.57l-1.949-3.896
			c-0.315-0.63-0.062-1.395,0.568-1.71l3.896-1.95c0.629-0.314,1.394-0.059,1.709,0.571l1.949,3.896
			C599.713,220.541,599.459,221.305,598.83,221.62z M594.933,220.721l1.617-0.809l-0.81-1.618l-1.617,0.809L594.933,220.721z"/>
		<path fill="#1F2421" d="M607.01,217.526l-3.896,1.95c-0.629,0.314-1.395,0.061-1.71-0.569l-1.949-3.896
			c-0.315-0.63-0.06-1.396,0.569-1.71l3.896-1.95c0.63-0.315,1.395-0.06,1.71,0.57l1.95,3.896
			C607.895,216.447,607.639,217.211,607.01,217.526z M603.113,216.627l1.618-0.81l-0.81-1.618l-1.619,0.81L603.113,216.627z"/>
		<path fill="#1F2421" d="M615.19,213.433l-3.896,1.949c-0.629,0.315-1.395,0.061-1.71-0.569l-1.95-3.896
			c-0.314-0.63-0.06-1.396,0.569-1.71l3.896-1.95c0.628-0.315,1.395-0.061,1.71,0.57l1.949,3.896
			C616.075,212.353,615.819,213.118,615.19,213.433z M611.294,212.533l1.617-0.809l-0.811-1.618l-1.616,0.809L611.294,212.533z"/>
	</g>
	<path fill="#1F2421" d="M570.379,246.534l-3.896,1.949c-0.63,0.315-1.395,0.06-1.71-0.569l-1.949-3.897
		c-0.315-0.629-0.061-1.394,0.569-1.709l3.895-1.949c0.629-0.315,1.396-0.061,1.71,0.568l1.95,3.897
		C571.263,245.453,571.008,246.219,570.379,246.534z M566.482,245.633l1.616-0.808l-0.81-1.618l-1.615,0.809L566.482,245.633z"/>
	<path fill="#1F2421" d="M578.56,242.439l-3.895,1.949c-0.631,0.315-1.396,0.06-1.71-0.569l-1.95-3.897
		c-0.314-0.629-0.061-1.394,0.569-1.709l3.896-1.949c0.629-0.314,1.394-0.06,1.709,0.569l1.95,3.897
		C579.443,241.359,579.188,242.125,578.56,242.439z M574.663,241.54l1.616-0.809l-0.809-1.618l-1.617,0.809L574.663,241.54z"/>
	<path fill="#1F2421" d="M586.74,238.346l-3.896,1.95c-0.629,0.314-1.395,0.06-1.709-0.569l-1.95-3.897
		c-0.315-0.629-0.06-1.394,0.568-1.708l3.897-1.95c0.629-0.314,1.395-0.061,1.709,0.569l1.95,3.896
		C587.625,237.266,587.369,238.031,586.74,238.346z M582.843,237.447l1.618-0.81l-0.81-1.617l-1.618,0.81L582.843,237.447z"/>
	<path fill="#1F2421" d="M594.921,234.252l-3.896,1.95c-0.629,0.315-1.394,0.06-1.709-0.569l-1.95-3.896
		c-0.314-0.629-0.06-1.394,0.569-1.709l3.896-1.95c0.629-0.315,1.395-0.061,1.71,0.568l1.95,3.896
		C595.806,233.171,595.55,233.937,594.921,234.252z M591.023,233.353l1.618-0.81l-0.81-1.617l-1.618,0.81L591.023,233.353z"/>
	<path fill="#1F2421" d="M603.103,230.158l-3.896,1.95c-0.63,0.315-1.395,0.06-1.709-0.569l-1.95-3.897
		c-0.315-0.629-0.061-1.394,0.568-1.708l3.896-1.95c0.629-0.315,1.393-0.06,1.708,0.569l1.949,3.896
		C603.985,229.078,603.731,229.843,603.103,230.158z M599.205,229.258l1.617-0.809l-0.81-1.618l-1.617,0.81L599.205,229.258z"/>
	<path fill="#1F2421" d="M602.222,186.896l-16.608,8.312c-0.631,0.315-1.396,0.061-1.71-0.569c-0.315-0.629-0.062-1.395,0.569-1.71
		l16.608-8.312c0.629-0.314,1.394-0.059,1.708,0.57C603.104,185.817,602.851,186.582,602.222,186.896z"/>
</g>
<g>
	<path fill="#1F2421" d="M622.644,427.918l-34.273-17.162c-2.732-1.368-3.841-4.703-2.474-7.435l24.177-48.284
		c1.368-2.731,4.702-3.841,7.434-2.473l34.274,17.162c2.73,1.367,3.839,4.701,2.472,7.433l-24.177,48.284
		C628.708,428.175,625.374,429.285,622.644,427.918z M616.605,354.366c-1.738-0.871-3.861-0.165-4.731,1.574l-24.177,48.284
		c-0.87,1.739-0.164,3.862,1.574,4.732l34.274,17.161c1.736,0.87,3.858,0.164,4.729-1.575l24.177-48.284
		c0.87-1.738,0.165-3.86-1.572-4.73L616.605,354.366z"/>
	<g>
		<path fill="#1F2421" d="M593.874,399.525l-6.641-3.325c-0.497-0.249-0.699-0.854-0.45-1.352c0.249-0.498,0.854-0.698,1.353-0.449
			l6.641,3.325c0.497,0.249,0.698,0.853,0.449,1.351C594.977,399.574,594.371,399.774,593.874,399.525z"/>
		<path fill="#1F2421" d="M593.217,400.84c-1.222-0.612-1.717-2.104-1.105-3.324s2.102-1.717,3.323-1.105
			c1.221,0.611,1.717,2.103,1.105,3.323S594.438,401.451,593.217,400.84z M594.532,398.211c-0.228-0.114-0.506-0.021-0.62,0.207
			c-0.114,0.228-0.021,0.506,0.206,0.62c0.229,0.114,0.506,0.021,0.62-0.207S594.761,398.325,594.532,398.211z"/>
		<path fill="#1F2421" d="M598.134,391.019l-6.641-3.325c-0.498-0.25-0.7-0.854-0.45-1.352c0.249-0.498,0.854-0.698,1.352-0.449
			l6.641,3.325c0.497,0.249,0.699,0.854,0.449,1.351C599.235,391.067,598.631,391.268,598.134,391.019z"/>
		<path fill="#1F2421" d="M597.476,392.333c-1.222-0.612-1.717-2.103-1.105-3.323s2.102-1.717,3.323-1.105
			c1.221,0.611,1.717,2.103,1.105,3.323S598.696,392.944,597.476,392.333z M598.792,389.705c-0.229-0.114-0.506-0.021-0.62,0.207
			c-0.114,0.228-0.022,0.505,0.206,0.62c0.228,0.114,0.506,0.021,0.619-0.206C599.111,390.098,599.02,389.819,598.792,389.705z"/>
		<path fill="#1F2421" d="M602.394,382.513l-6.642-3.325c-0.497-0.249-0.699-0.854-0.45-1.352s0.854-0.698,1.353-0.449l6.641,3.325
			c0.497,0.249,0.698,0.854,0.449,1.351C603.495,382.561,602.89,382.761,602.394,382.513z"/>
		<path fill="#1F2421" d="M601.735,383.826c-1.222-0.611-1.717-2.102-1.105-3.323c0.61-1.22,2.101-1.716,3.322-1.104
			c1.221,0.611,1.718,2.102,1.106,3.322C604.447,383.942,602.956,384.438,601.735,383.826z M603.051,381.2
			c-0.229-0.114-0.506-0.022-0.62,0.206c-0.113,0.228-0.021,0.506,0.206,0.621c0.228,0.114,0.506,0.021,0.62-0.207
			C603.371,381.591,603.278,381.314,603.051,381.2z"/>
		<path fill="#1F2421" d="M606.652,374.007l-6.641-3.325c-0.498-0.25-0.699-0.855-0.45-1.352c0.249-0.498,0.854-0.699,1.352-0.45
			l6.641,3.325c0.497,0.249,0.699,0.854,0.449,1.352C607.755,374.054,607.149,374.255,606.652,374.007z"/>
		<path fill="#1F2421" d="M605.994,375.32c-1.222-0.612-1.717-2.102-1.105-3.323c0.611-1.221,2.102-1.716,3.323-1.104
			c1.221,0.611,1.717,2.102,1.105,3.322C608.706,375.436,607.215,375.932,605.994,375.32z M607.31,372.693
			c-0.228-0.114-0.506-0.021-0.619,0.206c-0.114,0.228-0.022,0.506,0.206,0.621c0.228,0.114,0.506,0.021,0.62-0.207
			C607.63,373.086,607.538,372.808,607.31,372.693z"/>
		<path fill="#1F2421" d="M610.911,365.5l-6.641-3.325c-0.498-0.249-0.699-0.855-0.45-1.352s0.854-0.698,1.353-0.449l6.641,3.325
			c0.497,0.249,0.698,0.854,0.449,1.351S611.408,365.75,610.911,365.5z"/>
		<path fill="#1F2421" d="M610.253,366.814c-1.221-0.612-1.717-2.102-1.105-3.324c0.611-1.22,2.102-1.716,3.323-1.104
			c1.221,0.611,1.718,2.102,1.106,3.322C612.965,366.93,611.474,367.426,610.253,366.814z M611.569,364.188
			c-0.229-0.114-0.506-0.022-0.62,0.205c-0.114,0.228-0.021,0.506,0.206,0.62c0.229,0.114,0.506,0.021,0.62-0.207
			C611.89,364.579,611.797,364.301,611.569,364.188z"/>
	</g>
	<g>
		<path fill="#1F2421" d="M643.979,379.12l-27.242-13.641c-0.497-0.249-0.699-0.854-0.45-1.351c0.249-0.498,0.854-0.699,1.352-0.45
			l27.242,13.641c0.497,0.249,0.698,0.854,0.449,1.352C645.082,379.167,644.477,379.368,643.979,379.12z"/>
		<path fill="#1F2421" d="M641.556,383.96l-27.242-13.641c-0.497-0.249-0.699-0.854-0.449-1.352
			c0.248-0.497,0.854-0.698,1.351-0.449l27.242,13.641c0.497,0.249,0.699,0.854,0.45,1.351
			C642.657,384.008,642.053,384.209,641.556,383.96z"/>
		<path fill="#1F2421" d="M639.132,388.801L611.89,375.16c-0.497-0.249-0.698-0.855-0.449-1.352c0.248-0.498,0.854-0.699,1.351-0.45
			L640.034,387c0.496,0.249,0.698,0.854,0.449,1.351S639.629,389.05,639.132,388.801z"/>
		<path fill="#1F2421" d="M636.708,393.641L609.466,380c-0.497-0.249-0.699-0.854-0.449-1.352c0.249-0.497,0.854-0.698,1.351-0.449
			l27.243,13.641c0.496,0.249,0.698,0.854,0.449,1.351C637.811,393.689,637.205,393.89,636.708,393.641z"/>
		<path fill="#1F2421" d="M634.284,398.481l-27.242-13.641c-0.497-0.249-0.698-0.854-0.449-1.352
			c0.248-0.497,0.854-0.698,1.351-0.449l27.243,13.641c0.496,0.249,0.698,0.854,0.449,1.351S634.781,398.73,634.284,398.481z"/>
		<path fill="#1F2421" d="M631.86,403.322l-27.242-13.641c-0.497-0.249-0.698-0.854-0.449-1.352s0.854-0.699,1.352-0.45
			l27.242,13.641c0.497,0.249,0.698,0.854,0.449,1.352S632.357,403.571,631.86,403.322z"/>
		<path fill="#1F2421" d="M629.437,408.163l-27.242-13.641c-0.497-0.249-0.698-0.854-0.449-1.351
			c0.249-0.498,0.854-0.699,1.352-0.45l27.242,13.641c0.497,0.249,0.698,0.854,0.449,1.352
			C630.539,408.211,629.934,408.412,629.437,408.163z"/>
		<path fill="#1F2421" d="M627.013,413.004l-27.242-13.641c-0.497-0.249-0.698-0.854-0.449-1.352
			c0.249-0.497,0.854-0.698,1.352-0.449l27.242,13.641c0.497,0.249,0.698,0.854,0.449,1.351
			C628.115,413.051,627.51,413.252,627.013,413.004z"/>
		<path fill="#1F2421" d="M624.589,417.844l-27.242-13.641c-0.497-0.249-0.698-0.854-0.449-1.351
			c0.249-0.498,0.854-0.699,1.352-0.45l27.242,13.641c0.497,0.249,0.698,0.853,0.449,1.352
			C625.691,417.892,625.086,418.093,624.589,417.844z"/>
	</g>
</g>
<g>
	<g>
		<path d="M113.668,267.923L89,250.288c-0.522-0.373-0.642-1.098-0.269-1.62l41.443-57.968c0.373-0.522,1.098-0.643,1.62-0.27
			l40.325,28.829c0.522,0.374,0.643,1.099,0.269,1.621l-28.523,39.897c-0.163,0.227-0.402,0.388-0.674,0.455l-28.576,6.876
			C114.288,268.186,113.941,268.119,113.668,267.923z M91.297,249.073l23.29,16.651l27.639-6.65l27.597-38.6l-38.434-27.478
			L91.297,249.073z"/>
		<path d="M113.668,267.923c-0.11-0.079-0.21-0.178-0.288-0.296c-0.271-0.401-0.264-0.929,0.018-1.324l12.919-18.07
			c0.373-0.522,1.098-0.643,1.62-0.269l15.657,11.194c0.37,0.265,0.552,0.721,0.465,1.167c-0.087,0.445-0.427,0.801-0.869,0.907
			l-28.576,6.876C114.281,268.188,113.936,268.114,113.668,267.923z M127.532,250.529L117.1,265.12l23.074-5.552L127.532,250.529z"
			/>
	</g>
	<path d="M139.017,212.791l-8.91-6.371c-0.521-0.373-0.643-1.099-0.27-1.621c0.373-0.521,1.099-0.643,1.621-0.27l8.91,6.37
		c0.522,0.373,0.643,1.099,0.27,1.621C140.265,213.043,139.539,213.164,139.017,212.791z"/>
	<path d="M154.355,232.683l-23.578-16.856c-0.522-0.374-0.642-1.099-0.27-1.621c0.374-0.522,1.099-0.643,1.621-0.27l23.578,16.857
		c0.522,0.374,0.643,1.099,0.269,1.621C155.603,232.935,154.877,233.056,154.355,232.683z"/>
	<path d="M150.131,238.59l-28.471-20.355c-0.521-0.373-0.643-1.099-0.269-1.621c0.373-0.522,1.099-0.642,1.62-0.27l28.472,20.355
		c0.522,0.374,0.644,1.099,0.27,1.621C151.38,238.842,150.654,238.963,150.131,238.59z"/>
	<path d="M145.909,244.497l-28.471-20.355c-0.522-0.373-0.643-1.099-0.27-1.62c0.374-0.522,1.1-0.643,1.621-0.27l28.472,20.355
		c0.522,0.374,0.643,1.1,0.269,1.622C147.157,244.75,146.431,244.87,145.909,244.497z"/>
	<path d="M141.686,250.404l-28.472-20.355c-0.521-0.373-0.642-1.099-0.269-1.621c0.374-0.522,1.099-0.643,1.621-0.27l28.472,20.355
		c0.522,0.373,0.643,1.098,0.27,1.621C142.934,250.656,142.208,250.777,141.686,250.404z"/>
	<path d="M123.228,246.132l-14.236-10.178c-0.522-0.373-0.643-1.098-0.27-1.621s1.099-0.643,1.621-0.27l14.236,10.178
		c0.522,0.374,0.643,1.098,0.269,1.621C124.475,246.385,123.75,246.506,123.228,246.132z"/>
	<path d="M113.561,248.148l-8.792-6.286c-0.521-0.373-0.643-1.098-0.269-1.621s1.099-0.643,1.621-0.27l8.792,6.286
		c0.522,0.373,0.643,1.098,0.27,1.621C114.808,248.401,114.082,248.521,113.561,248.148z"/>
</g>
<g>
	<path fill="#1F2421" d="M393.275,311.388c-6.249-1.952-9.745-8.625-7.793-14.875c1.952-6.249,8.625-9.745,14.874-7.793
		s9.745,8.625,7.793,14.874C406.197,309.844,399.524,313.34,393.275,311.388z M399.739,290.696
		c-5.16-1.612-10.669,1.275-12.281,6.435c-1.611,5.161,1.274,10.67,6.435,12.282c5.16,1.612,10.669-1.275,12.281-6.436
		C407.785,297.817,404.899,292.308,399.739,290.696z"/>
	<path fill="#1F2421" d="M415.445,329.951l-50.964-15.921c-2.81-0.877-4.381-3.878-3.503-6.688c0.035-0.112,0.088-0.217,0.158-0.312
		c0.053-0.07,5.28-7.052,10.719-13.858c11.423-14.295,12.583-13.933,13.517-13.642l3.979,1.243l1.352-4.329
		c0.171-0.545,0.751-0.85,1.295-0.68l5.726,1.789c0.545,0.17,0.85,0.751,0.68,1.296l-1.353,4.329l9.179,2.868l1.353-4.33
		c0.17-0.545,0.75-0.85,1.296-0.679l5.725,1.789c0.546,0.17,0.85,0.751,0.68,1.296l-1.353,4.329l3.979,1.243
		c0.932,0.292,2.093,0.654,3.347,18.91c0.597,8.691,0.921,17.408,0.924,17.495c0.005,0.118-0.012,0.235-0.047,0.347
		C421.254,329.256,418.255,330.829,415.445,329.951z M362.908,308.119c-0.433,1.674,0.522,3.416,2.19,3.937l50.964,15.92
		c1.666,0.521,3.443-0.368,4.041-1.99c-0.571-15.417-1.85-32.214-3.035-34.385l-4.743-1.482c-0.546-0.17-0.85-0.75-0.679-1.296
		l1.352-4.329l-3.75-1.171l-1.352,4.329c-0.171,0.545-0.751,0.85-1.297,0.679l-11.154-3.484c-0.545-0.17-0.849-0.75-0.679-1.296
		l1.353-4.329l-3.749-1.171l-1.353,4.33c-0.17,0.545-0.751,0.849-1.297,0.679l-4.744-1.482
		C382.766,282.686,372.154,295.769,362.908,308.119z"/>
	<path fill="#1F2421" d="M375.167,277.091c-0.238-0.074-0.442-0.232-0.574-0.447c-0.156-0.254-0.195-0.564-0.105-0.85
		c0.049-0.157,5.07-15.698,18.89-13.921c0.989,0.127,7.958,2.096,14.124,3.926c6.14,2.014,12.991,4.362,13.876,4.821
		c12.372,6.405,7.655,22.042,7.606,22.199c-0.089,0.285-0.297,0.518-0.57,0.638c-0.272,0.121-0.585,0.12-0.855-0.009l-11.307-5.29
		c-0.47-0.219-0.704-0.751-0.55-1.246l1.147-3.673c0.235-0.75-1.563-3.51-12.533-7.297c-11.115-3.113-14.165-1.868-14.396-1.124
		l-1.149,3.681c-0.154,0.494-0.65,0.798-1.161,0.711l-12.307-2.087C375.255,277.115,375.21,277.104,375.167,277.091z
		 M417.945,286.667l9.362,4.379c0.789-3.495,2.237-13.868-6.882-18.588c-0.531-0.275-5.938-2.189-13.541-4.684
		c-7.644-2.268-13.179-3.772-13.772-3.849c-10.059-1.294-14.862,8.069-16.228,11.367l10.179,1.727l0.878-2.811
		c0.952-3.054,6.668-3.133,16.99-0.241c10.193,3.516,14.848,6.835,13.894,9.882L417.945,286.667z"/>
</g>
<g>
	<path fill="#1F2421" d="M74.292,478.318l-23.742-7.479c-3.513-1.107-5.481-4.848-4.415-8.365l8.838-44.382
		c0.072-0.361,0.294-0.675,0.611-0.863c0.317-0.187,0.699-0.231,1.05-0.121l43.47,13.694c0.353,0.111,0.639,0.366,0.792,0.701
		c0.152,0.336,0.154,0.721,0.006,1.057l-18.197,41.434C81.563,477.488,77.806,479.425,74.292,478.318z M57.234,420.016
		l-8.569,43.029c-0.009,0.046-0.021,0.092-0.035,0.137c-0.685,2.174,0.526,4.498,2.699,5.183l23.742,7.479
		c2.174,0.686,4.499-0.525,5.184-2.699c0.014-0.045,0.03-0.089,0.049-0.133l17.642-40.17L57.234,420.016z"/>
	<g>
		<path fill="#1F2421" d="M94.355,431.71c-0.061-0.019-0.119-0.041-0.178-0.07c-0.645-0.312-0.913-1.088-0.602-1.731l9.212-18.996
			l-4.638-2.249l-9.71,20.022c-0.313,0.645-1.092,0.914-1.733,0.601c-0.644-0.312-0.914-1.088-0.601-1.73l10.275-21.19
			c0.313-0.645,1.088-0.925,1.732-0.601l6.972,3.38c0.31,0.151,0.547,0.417,0.66,0.743c0.113,0.324,0.09,0.682-0.06,0.99
			l-9.776,20.162C95.626,431.625,94.958,431.9,94.355,431.71z"/>
		<path fill="#1F2421" d="M100.918,428.648c-0.06-0.02-0.12-0.042-0.177-0.07l-1.519-0.735c-0.31-0.15-0.547-0.417-0.66-0.741
			c-0.113-0.325-0.09-0.682,0.059-0.991l6.759-13.941l-8.397-4.072c-0.308-0.15-0.546-0.417-0.658-0.742
			c-0.114-0.324-0.093-0.681,0.057-0.99l1.214-2.503c0.149-0.31,0.418-0.547,0.743-0.66c0.324-0.112,0.679-0.09,0.99,0.058
			l11.083,5.375c0.31,0.149,0.546,0.416,0.659,0.741c0.113,0.325,0.092,0.682-0.057,0.991l-8.54,17.608
			C102.188,428.563,101.522,428.839,100.918,428.648z M99.28,406.33l8.397,4.073c0.122,0.06,0.232,0.135,0.328,0.225l0.107-0.223
			l-8.749-4.245L99.28,406.33z"/>
		<path fill="#1F2421" d="M103.916,408.354c-0.061-0.019-0.12-0.042-0.18-0.071l-3.641-1.765c-0.309-0.152-0.547-0.417-0.659-0.742
			c-0.113-0.326-0.092-0.683,0.058-0.99l4.167-8.593c0.313-0.645,1.093-0.914,1.732-0.601l3.643,1.766
			c0.644,0.311,0.913,1.088,0.6,1.732l-4.166,8.592C105.185,408.267,104.519,408.543,103.916,408.354z M102.393,404.749l1.309,0.634
			l3.035-6.259l-1.309-0.635L102.393,404.749z"/>
	</g>
	<g>
		<path fill="#1F2421" d="M94.598,402.227c-0.016-0.005-0.03-0.01-0.045-0.015l-8.01-2.848c-0.675-0.239-1.028-0.98-0.788-1.655
			l4.535-12.762c0.013-0.035,0.026-0.068,0.041-0.101c0.996-2.786,4.015-4.286,6.867-3.387l0.195,0.065
			c1.395,0.494,2.514,1.502,3.148,2.841c0.63,1.324,0.712,2.813,0.233,4.197c-0.01,0.034-0.02,0.066-0.031,0.1l-4.535,12.762
			c-0.116,0.324-0.354,0.59-0.665,0.738C95.247,402.301,94.911,402.325,94.598,402.227z M88.633,397.355l5.566,1.979l4.046-11.387
			c0.014-0.06,0.031-0.122,0.054-0.181c0.009-0.025,0.023-0.057,0.037-0.089c0.242-0.728,0.195-1.505-0.134-2.2
			c-0.339-0.711-0.934-1.248-1.675-1.512c-0.001,0-0.003-0.001-0.004-0.001c-1.606-0.506-3.193,0.274-3.745,1.743
			c-0.01,0.037-0.02,0.074-0.03,0.102c-0.019,0.056-0.041,0.108-0.067,0.159L88.633,397.355z"/>
		<path fill="#1F2421" d="M85.152,428.812c-0.015-0.005-0.03-0.01-0.044-0.016c-0.675-0.239-1.028-0.98-0.789-1.655l10.942-30.794
			l-5.567-1.978L78.65,425.453c-0.24,0.675-0.985,1.075-1.655,0.787c-0.675-0.239-1.028-0.981-0.789-1.655l11.479-32.307
			c0.24-0.674,1.014-1.06,1.656-0.787l8.011,2.846c0.324,0.115,0.59,0.354,0.737,0.665c0.148,0.309,0.166,0.667,0.052,0.99
			l-11.377,32.016C86.529,428.67,85.816,429.021,85.152,428.812z"/>
	</g>
	<g>
		<path fill="#1F2421" d="M68.353,423.521c-0.521-0.164-0.901-0.649-0.908-1.225l-0.212-22.693l-2.686-12.123l-2.458,12.173
			l0.189,20.167c0.007,0.716-0.568,1.303-1.284,1.31c-0.716,0.005-1.301-0.57-1.309-1.285l-0.188-19.952
			c-0.033-0.162-0.036-0.331-0.002-0.499l3.722-18.43c0.122-0.601,0.646-1.034,1.259-1.04c0.61-0.005,1.145,0.419,1.278,1.016
			l4.067,18.356c0.039,0.176,0.041,0.356,0.007,0.528l0.211,22.446c0.005,0.717-0.569,1.303-1.285,1.31
			C68.614,423.583,68.479,423.562,68.353,423.521z"/>
		<path fill="#1F2421" d="M62.555,402.271c-1.246-0.393-2.201-1.127-2.753-1.783c-0.462-0.546-0.394-1.364,0.153-1.826
			c0.544-0.459,1.355-0.393,1.82,0.145c0.241,0.275,2.435,2.563,5.975-0.244c0.561-0.444,1.375-0.351,1.821,0.21
			c0.445,0.561,0.352,1.376-0.21,1.822C66.719,402.691,64.339,402.833,62.555,402.271z"/>
		<path fill="#1F2421" d="M63.428,391.145c-0.814-0.256-1.368-0.739-1.455-0.817c-0.531-0.481-0.572-1.301-0.091-1.832
			c0.477-0.528,1.291-0.574,1.821-0.101c0.139,0.121,0.513,0.353,0.795,0.311c0.241-0.033,0.467-0.301,0.614-0.521
			c0.399-0.595,1.205-0.75,1.799-0.356c0.594,0.4,0.753,1.206,0.355,1.799c-0.815,1.216-1.788,1.571-2.458,1.652
			C64.302,391.343,63.833,391.272,63.428,391.145z"/>
	</g>
</g>
<g>
	<g>
		<path fill="#1F2421" d="M248.052,102.504c-0.649,0-1.218-0.473-1.318-1.134l-9.444-61.576c-0.055-0.35,0.034-0.708,0.243-0.993
			c0.21-0.286,0.525-0.477,0.876-0.53l62.637-9.606c0.345-0.055,0.707,0.034,0.994,0.244c0.285,0.209,0.476,0.524,0.531,0.875
			l7.289,47.542c0.074,0.472-0.111,0.947-0.484,1.245l-22.17,17.765c-0.183,0.146-0.402,0.243-0.635,0.278l-38.314,5.876
			C248.188,102.499,248.12,102.504,248.052,102.504z M240.135,40.71l9.037,58.934l36.642-5.619l21.288-17.058l-6.973-45.458
			L240.135,40.71z"/>
		<path fill="#1F2421" d="M286.37,96.628c-0.165,0-0.329-0.03-0.486-0.091c-0.446-0.173-0.765-0.571-0.835-1.043l-2.151-14.034
			c-0.112-0.729,0.39-1.411,1.118-1.523l24.321-3.73c0.605-0.091,1.182,0.23,1.428,0.783c0.242,0.554,0.084,1.203-0.389,1.581
			l-22.17,17.765C286.965,96.527,286.667,96.628,286.37,96.628z M285.741,82.376l1.6,10.425l16.468-13.196L285.741,82.376z"/>
	</g>
	<path fill="#1F2421" d="M242.967,40.259c-0.739,0-1.336-0.598-1.336-1.336v-4.495c0-0.738,0.598-1.336,1.336-1.336h29.312
		c0.739,0,1.336,0.599,1.336,1.336c0,0.738-0.598,1.336-1.336,1.336h-27.975v3.158C244.304,39.661,243.705,40.259,242.967,40.259z"
		/>
	<path fill="#1F2421" d="M247.371,98.061h-4.404c-0.739,0-1.336-0.599-1.336-1.336V67.992c0-0.738,0.598-1.336,1.336-1.336
		c0.737,0,1.336,0.599,1.336,1.336v27.396h3.067c0.739,0,1.336,0.598,1.336,1.336C248.708,97.462,248.11,98.061,247.371,98.061z"/>
	<path fill="#1F2421" d="M306.336,98.061h-29.312c-0.739,0-1.336-0.599-1.336-1.336c0-0.738,0.598-1.336,1.336-1.336H305V79.292
		c0-0.738,0.598-1.336,1.336-1.336c0.739,0,1.337,0.598,1.337,1.336v17.432C307.673,97.462,307.075,98.061,306.336,98.061z"/>
	<path fill="#1F2421" d="M306.336,64.497c-0.738,0-1.336-0.599-1.336-1.336V35.765h-3.07c-0.738,0-1.336-0.598-1.336-1.336
		c0-0.738,0.598-1.336,1.336-1.336h4.406c0.739,0,1.337,0.599,1.337,1.336v28.732C307.673,63.898,307.075,64.497,306.336,64.497z"/>
	<g>
		<path fill="#1F2421" d="M277.283,50.14c-2.035,0-3.688-1.849-3.688-4.121c0-2.272,1.653-4.122,3.688-4.122
			c2.034,0,3.689,1.849,3.689,4.122C280.972,48.291,279.316,50.14,277.283,50.14z M277.283,44.57c-0.541,0-1.015,0.677-1.015,1.448
			c0,0.771,0.474,1.448,1.015,1.448c0.541,0,1.016-0.677,1.016-1.448C278.298,45.247,277.823,44.57,277.283,44.57z"/>
		<path fill="#1F2421" d="M274.237,51.678c-2.75,0-4.988-2.539-4.988-5.66c0-3.121,2.238-5.66,4.988-5.66
			c1.524,0,2.944,0.772,3.896,2.118c0.426,0.603,0.282,1.437-0.32,1.863c-0.604,0.425-1.438,0.281-1.863-0.32
			c-0.444-0.628-1.068-0.988-1.712-0.988c-1.277,0-2.315,1.34-2.315,2.987c0,1.647,1.039,2.987,2.315,2.987
			c0.646,0,1.27-0.36,1.712-0.988c0.425-0.603,1.258-0.748,1.862-0.322c0.603,0.425,0.748,1.259,0.322,1.862
			C277.184,50.905,275.764,51.678,274.237,51.678z"/>
	</g>
</g>
<g>
	<path fill="#1F2421" d="M531.876,461.2l-17.353,6.97c-0.453,0.183-0.969-0.037-1.15-0.491l-21.944-54.635
		c-0.182-0.454,0.038-0.969,0.492-1.151l17.353-6.969c0.453-0.182,0.968,0.037,1.15,0.491l21.944,54.634
		C532.55,460.503,532.33,461.019,531.876,461.2z M514.686,466.197l15.709-6.31l-21.283-52.992l-15.709,6.309L514.686,466.197z"/>
	<path fill="#1F2421" d="M527.225,449.617l-17.353,6.97c-0.454,0.183-0.97-0.037-1.151-0.491l-2.229-5.551
		c-0.183-0.454,0.037-0.969,0.491-1.151l17.353-6.97c0.453-0.182,0.969,0.038,1.151,0.492l2.229,5.551
		C527.897,448.921,527.678,449.436,527.225,449.617z M510.033,454.614l15.71-6.31l-1.57-3.907l-15.709,6.31L510.033,454.614z"/>
	<path fill="#1F2421" d="M516.999,424.159l-17.353,6.969c-0.454,0.183-0.97-0.038-1.151-0.491l-2.229-5.551
		c-0.183-0.454,0.038-0.969,0.491-1.151l17.353-6.97c0.453-0.182,0.969,0.038,1.151,0.492l2.229,5.55
		C517.672,423.461,517.453,423.977,516.999,424.159z M499.808,429.155l15.71-6.309l-1.57-3.909l-15.709,6.31L499.808,429.155z"/>
	<path fill="#1F2421" d="M514.523,468.17l-17.352,6.97c-0.454,0.182-0.969-0.038-1.15-0.492l-19.068-47.476
		c-0.183-0.454,0.037-0.969,0.491-1.15l17.352-6.97c0.454-0.182,0.969,0.038,1.151,0.491l19.068,47.476
		C515.197,467.473,514.978,467.987,514.523,468.17z M497.333,473.166l15.71-6.31l-18.409-45.833l-15.709,6.31L497.333,473.166z"/>
	<path fill="#1F2421" d="M501.106,440.479l-13.398,5.382c-0.453,0.182-0.969-0.038-1.151-0.492l-5.457-13.586
		c-0.183-0.454,0.039-0.97,0.492-1.151l13.397-5.382c0.454-0.182,0.97,0.038,1.151,0.492l5.457,13.586
		C501.78,439.781,501.561,440.297,501.106,440.479z M487.869,443.888l11.757-4.722l-4.798-11.944l-11.757,4.722L487.869,443.888z"/>
	<g>
		<path fill="#1F2421" d="M492.193,477.139c-0.028,0.012-0.06,0.021-0.09,0.03l-17.987,5.11c-0.226,0.064-0.467,0.037-0.672-0.078
			c-0.206-0.113-0.356-0.304-0.421-0.529l-13.983-49.215c-0.064-0.228-0.036-0.469,0.079-0.674c0.114-0.204,0.303-0.354,0.53-0.42
			l17.988-5.111c0.47-0.133,0.96,0.14,1.093,0.609l13.982,49.214C492.838,476.515,492.607,476.973,492.193,477.139z
			 M474.485,480.336l16.283-4.627l-13.499-47.512l-16.285,4.626L474.485,480.336z"/>
		<path fill="#1F2421" d="M489.83,468.828c-0.028,0.011-0.058,0.021-0.088,0.029l-17.987,5.11c-0.471,0.135-0.959-0.139-1.093-0.607
			l-1.545-5.434c-0.063-0.226-0.035-0.468,0.079-0.673s0.306-0.355,0.53-0.42l17.989-5.111c0.47-0.134,0.959,0.14,1.092,0.61
			l1.544,5.432c0.063,0.226,0.036,0.468-0.078,0.674C490.175,468.615,490.018,468.753,489.83,468.828z M472.123,472.024
			l16.285-4.628l-1.061-3.73l-16.285,4.628L472.123,472.024z"/>
	</g>
</g>
<g>
	<path fill="#1F2421" d="M292.923,148.629h-62.598c-0.786,0-1.422,0.665-1.422,1.484v44.146h65.444v-44.146
		C294.346,149.294,293.709,148.629,292.923,148.629z M261.333,150.906c0.576,0,1.043,0.467,1.043,1.043
		c0,0.577-0.467,1.044-1.043,1.044s-1.043-0.467-1.043-1.044C260.29,151.374,260.757,150.906,261.333,150.906z M290.477,188.748
		c0,0.955-0.729,1.73-1.63,1.73h-55.024c-0.902,0-1.632-0.775-1.632-1.73v-32.212c0-0.955,0.73-1.729,1.632-1.729h55.024
		c0.901,0,1.63,0.774,1.63,1.729V188.748z"/>
	<path fill="#1F2421" d="M219.6,195.727v3.654c0,2.019,1.636,3.654,3.654,3.654h76.739c2.019,0,3.653-1.636,3.653-3.654v-3.654
		H219.6z M292.756,201.208h-18.183v-2.432h18.183V201.208z"/>
</g>
<path fill="#1F2421" d="M722.715,264.195c-0.394-0.207-50.241-3.109-50.241-3.109s-29.342,19.217-39.297,26.216
	c-1.881,1.323-2.925,3.133-3.125,5.569c-0.165,2.013,0.692,3.873,2.133,5.08c-1.618,0.957-2.768,2.652-2.933,4.664
	s0.692,3.873,2.133,5.079c-1.618,0.957-2.768,2.652-2.933,4.664c-0.27,3.291,2.188,6.188,5.478,6.458l52.373,4.301
	c0.141,0.01,0.276-0.007,0.403-0.044c0.007-0.002,0.011-0.002,0.017-0.003c0.132-0.042,0.254-0.11,0.361-0.195
	c0.002-0.002,0.007-0.002,0.01-0.007l33.413-27.619c0.229-0.189,0.371-0.463,0.396-0.758l0.8-9.743l0.8-9.744l0.8-9.743
	C723.338,264.818,723.106,264.399,722.715,264.195z M719.548,284.104l-31.046,25.663l0.55-6.682l31.044-25.663L719.548,284.104z
	 M689.85,293.342l31.047-25.663l-0.549,6.681l-31.046,25.663L689.85,293.342z M632.245,293.051c0.171-2.082,2.003-3.637,4.085-3.466
	l51.276,4.21l-0.619,7.551l-51.276-4.21C633.629,296.965,632.074,295.134,632.245,293.051z M631.445,302.795
	c0.171-2.082,2.004-3.637,4.085-3.466l51.276,4.21l-0.62,7.55l-51.277-4.21C632.828,306.709,631.273,304.877,631.445,302.795z
	 M630.645,312.539c0.171-2.082,2.005-3.637,4.086-3.466l51.276,4.21l-0.619,7.55l-51.277-4.209
	C632.028,316.453,630.474,314.62,630.645,312.539z M718.748,293.847l-31.044,25.663l0.547-6.681l31.046-25.664L718.748,293.847z"/>
<g>
	<path fill="#1F2421" d="M236.85,383.192l-43.433,18.115c-0.453,0.188-0.982,0.704-1.183,1.152l-19.226,42.954
		c-0.2,0.447,0.005,0.657,0.458,0.47l17.349-7.236c-0.729,1.856-0.599,2.229-0.498,2.506c0.732,2.032,14.255,15.763,16.958,18.494
		l1.11-1.098c-7.595-7.676-15.907-16.468-16.576-17.873c0.014-0.42,8.493-22.284,9.15-23.737l-6.522,20.197l22.462-9.368
		c0.452-0.189,0.982-0.706,1.183-1.152l19.225-42.954C237.508,383.213,237.302,383.003,236.85,383.192z"/>
	<path fill="#1F2421" d="M219.583,429.339c-0.336,0.328-0.884,0.78-1.583,1.07l-21.771,9.08l12.614,12.943
		c2.057,2.11,11.357-3.621,20.774-12.799c9.417-9.179,15.385-18.328,13.329-20.438l-12.614-12.942l-9.639,21.53
		C220.388,428.474,219.92,429.01,219.583,429.339z"/>
	<path fill="#1F2421" d="M212.935,461.665c-0.545-0.56-1.815-1.863-2.406-2.47c-0.59-0.605-1.879,0.589-1.879,0.589
		s-1.228,1.258-0.637,1.863c0.59,0.606,1.861,1.91,2.407,2.47c0.544,0.558,1.802-0.668,1.802-0.668S213.479,462.223,212.935,461.665
		z"/>
	<path fill="#1F2421" d="M213.745,462.495c-0.515,1.834-2.36,2.301-2.36,2.301c-0.667,1.801,1.39,4.098,2.496,5.231
		c1.106,1.136,1.724,2.95,1.724,2.95l2.082,0.271c0,0-0.568-2.089-1.963-3.051c-1.397-0.963-1.773-2.088-1.773-2.088
		s0.453,0.466,1.609,1.278c1.155,0.813,2.532,3.406,2.77,3.463c0.238,0.059,2.009-0.795,1.564-1.936s-3.686-4.28-3.686-4.28
		s0,0,1.309,0.784c1.309,0.783,2.91,3.28,2.91,3.28s0.765-0.504,1.048-1.021c0.283-0.518,0.256-0.917-0.476-1.172
		c-0.732-0.254-2.1-2.493-3.383-4.029C215.803,462.306,213.745,462.495,213.745,462.495z"/>
</g>
<g>
	<polygon fill="#1F2421" points="388.986,407.534 382.603,419.718 376.788,447.701 388.506,450.135 394.321,422.152 
		393.319,408.435 	"/>
	<path fill="#1F2421" d="M370.747,506.21c1.62,0.336,3.206-0.703,3.543-2.323l1.272-6.127l-5.865-1.22l-1.274,6.127
		C368.087,504.287,369.128,505.872,370.747,506.21z"/>
	<g>
		
			<rect x="371.829" y="455.552" transform="matrix(0.9791 0.2035 -0.2035 0.9791 103.9897 -67.0039)" fill="#1F2421" width="11.983" height="33.25"/>
		<path fill="#1F2421" d="M367.79,491.652c0.005,1.179,0.354,2.307,0.979,3.257l8.295,1.724c0.951-0.623,1.722-1.517,2.194-2.597
			L367.79,491.652z"/>
	</g>
	
		<rect x="367.946" y="489.764" transform="matrix(0.9791 0.2034 -0.2034 0.9791 107.7734 -66.2909)" fill="#1F2421" width="16.821" height="2.701"/>
	
		<rect x="384.184" y="463.795" transform="matrix(0.9792 0.203 -0.203 0.9792 105.1303 -68.2837)" fill="#1F2421" width="2.357" height="28.883"/>
	
		<rect x="375.931" y="451.375" transform="matrix(0.9791 0.2035 -0.2035 0.9791 100.0634 -68.2528)" fill="#1F2421" width="11.968" height="2.126"/>
	<path fill="#1F2421" d="M393.604,401.531c0.236-1.45-0.479-3.033-0.479-3.033s-1.288,1.167-1.65,2.591
		c-0.359,1.421-1.11,5.349-1.11,5.349l2.129,0.442C392.493,406.88,393.369,402.979,393.604,401.531z"/>
</g>
<g>
	<g>
		<path fill="#1F2421" d="M376.471,223.328l79.786-9.264l-0.01-0.078c-1.961,0.044-3.798-0.6-5.257-1.729
			c-1.456-1.129-0.191-4.008,1.363-5.146l-78.046,9.062C374.731,218.795,375.608,221.311,376.471,223.328z"/>
		<path fill="#1F2421" d="M374.086,214.269l78.047-9.061c-1.909-0.869-3.728-3.092-2.664-4.494c1.165-1.536,2.869-2.664,4.879-3.091
			l-0.011-0.079l-79.783,9.263C374.176,208.969,373.899,211.618,374.086,214.269z"/>
		<path fill="#1F2421" d="M372.27,215.444c-0.344-2.962-0.099-5.951,0.292-8.404l-7.363,0.854c-4.563,0.53-7.831,4.658-7.302,9.22
			c0.53,4.561,4.655,7.83,9.218,7.301l7.366-0.856C373.536,221.259,372.612,218.407,372.27,215.444z"/>
	</g>
	<path fill="#1F2421" d="M486.518,202.182l-17.35-2.077c-1.142,1.578-1.442,3.139-1.313,4.243c0.127,1.103,0.777,2.556,2.251,3.83
		L486.518,202.182z"/>
</g>
<g>
	<g>
		<path fill="#1F2421" d="M364.621,137.993l12.347-9.16l0,0l12.346-9.159c0.845-0.626,2.035-0.449,2.661,0.395
			s0.45,2.034-0.395,2.661l-12.346,9.16l0,0l-12.346,9.16c-0.845,0.626-2.036,0.449-2.662-0.395
			C363.601,139.81,363.777,138.619,364.621,137.993z"/>
		<polygon fill="#1F2421" points="392.426,124.029 406.666,148.37 396.86,155.645 387.054,162.92 367.889,142.233 380.156,133.131 
					"/>
	</g>
	<g>
		<path fill="#1F2421" d="M371.725,108.955l7.814,16.192l-1.738,1.289l-7.825-16.213
			C370.445,109.797,371.049,109.32,371.725,108.955z"/>
		<path fill="#1F2421" d="M372.222,108.714c0.706-0.302,1.456-0.479,2.081-0.58l7.426,15.387l-1.737,1.289L372.222,108.714z"/>
		<path fill="#1F2421" d="M374.051,107.613c-0.706,0.125-1.546,0.342-2.322,0.716c-0.774,0.375-1.466,0.896-2.004,1.372
			l-0.932-1.929c-0.576-1.195-0.075-2.631,1.119-3.208c1.195-0.576,2.631-0.076,3.208,1.12L374.051,107.613z"/>
	</g>
	<g>
		
			<rect x="382.839" y="117.443" transform="matrix(0.981 -0.1938 0.1938 0.981 -15.5328 76.8139)" fill="#1F2421" width="4.12" height="0.732"/>
		<polygon fill="#1F2421" points="387.309,119.382 383.646,122.1 383.117,119.421 387.159,118.624 		"/>
		
			<rect x="381.493" y="105.277" transform="matrix(0.9811 -0.1936 0.1936 0.9811 -14.2333 76.3614)" fill="#1F2421" width="4.126" height="11.446"/>
		<polygon fill="#1F2421" points="384.901,104.597 380.366,105.493 380.186,104.581 385.867,103.458 386.047,104.37 
			385.697,104.439 387.535,113.738 386.738,113.896 		"/>
		<path fill="#1F2421" d="M384.126,103.479l-3.957,0.781c0.006-0.405,0.131-0.792,0.348-1.118l2.862-0.564
			C383.704,102.796,383.966,103.106,384.126,103.479z"/>
		<path fill="#1F2421" d="M382.866,102.185l-2.023,0.399l-0.418-2.112c-0.11-0.56,0.253-1.101,0.812-1.212s1.102,0.252,1.212,0.812
			L382.866,102.185z"/>
	</g>
	<path fill="#1F2421" d="M338.811,119.153l26.401,16.623l10.676-7.92l-30.476-19.189c-2.896-1.823-6.721-0.952-8.543,1.942
		C335.045,113.504,335.915,117.33,338.811,119.153z M343.053,114.503c0.343-0.544,1.063-0.709,1.608-0.365l5.377,3.386
		c0.545,0.343,0.709,1.063,0.365,1.608c-0.343,0.545-1.063,0.709-1.607,0.366l-5.377-3.385
		C342.873,115.769,342.709,115.049,343.053,114.503z"/>
</g>
<path fill="#1F2421" d="M141.848,367.275l-0.737-0.736l6.949-6.949l-2.702-2.7l-4.124,4.125l-0.737-0.737l4.125-4.124l-2.701-2.702
	l-6.948,6.947l-0.737-0.735l6.949-6.948l-2.701-2.702l-4.124,4.125l-0.736-0.737l4.124-4.124l-2.701-2.702l-4.124,4.125
	l-0.737-0.738l4.124-4.124l-2.7-2.7l-4.125,4.124l-0.736-0.737l4.124-4.125l-2.701-2.701l-6.947,6.948l-0.737-0.736l6.948-6.949
	l-2.7-2.7l-4.124,4.124l-0.737-0.736l4.125-4.124l-2.701-2.702l-6.948,6.948l-0.737-0.735l6.949-6.949l-2.702-2.701l-4.124,4.124
	l-0.737-0.737l4.125-4.124l-2.701-2.701l-6.948,6.949l-0.737-0.737l6.949-6.948l-2.701-2.701l-4.124,4.125l-0.737-0.737l4.124-4.125
	l-2.7-2.7l-4.125,4.124l-0.736-0.736l4.124-4.124l-2.7-2.701l-6.948,6.948l-0.737-0.737l6.947-6.947l-2.7-2.702l-4.125,4.125
	l-0.736-0.737l4.124-4.125l-2.7-2.701l-6.948,6.948l-0.737-0.737l6.947-6.948l-2.7-2.7l-4.124,4.124l-0.737-0.737l4.125-4.125
	l-2.701-2.7l-6.948,6.948l-0.737-0.737l6.949-6.947l-2.701-2.701l-4.124,4.125l-0.738-0.737l4.125-4.124l-9.153-9.152
	c-3.836-3.837-10.059-3.837-13.896,0c-3.837,3.837-3.837,10.059,0,13.896l74.344,74.346l13.897-13.897l-2.58-2.579L141.848,367.275z
	 M73.093,301.138l-3.563-3.563c-0.722-0.722-0.722-1.894,0-2.616c0.723-0.723,1.894-0.723,2.617,0l3.563,3.563
	c0.722,0.723,0.722,1.894,0,2.617C74.987,301.86,73.815,301.86,73.093,301.138z"/>
<path fill="#1F2421" d="M258.887,252.398c-7.573,2.844-13.583,6.833-16.163,10.117c3.179-2.728,8.004-6.01,13.702-8.15
	c10.955-4.114,20.874-3.865,22.068-0.686l20.053,53.4l-0.033,0.012c-1.709-2.815-11.258-1.975-21.844,2
	c-6.486,2.436-11.889,5.5-14.983,8.254l-2.086-5.558c0.136,0.071,0.294,0.082,0.436,0.029c0.074-0.027,0.142-0.072,0.2-0.133
	c12.498-13.204,31.534-11.923,31.725-11.909c0.293,0.02,0.549-0.197,0.572-0.491c0.022-0.293-0.198-0.548-0.491-0.571
	c-0.195-0.015-19.727-1.341-32.58,12.239c-0.049,0.052-0.085,0.112-0.109,0.174l-1.989-5.295c0.136,0.073,0.295,0.082,0.436,0.029
	c0.074-0.027,0.142-0.071,0.199-0.131c12.499-13.204,31.534-11.924,31.726-11.909c0.293,0.02,0.549-0.197,0.571-0.49
	c0.022-0.293-0.197-0.549-0.49-0.571c-0.196-0.015-19.727-1.342-32.58,12.238c-0.049,0.053-0.085,0.112-0.109,0.174l-1.988-5.294
	c0.136,0.072,0.295,0.082,0.436,0.029c0.074-0.028,0.142-0.072,0.199-0.133c12.499-13.202,31.534-11.924,31.726-11.907
	c0.293,0.019,0.549-0.199,0.571-0.492c0.021-0.293-0.198-0.549-0.491-0.571c-0.196-0.015-19.727-1.342-32.58,12.238
	c-0.049,0.052-0.086,0.112-0.109,0.176l-1.988-5.295c0.135,0.071,0.294,0.082,0.436,0.029c0.074-0.028,0.143-0.071,0.2-0.132
	c12.498-13.204,31.534-11.924,31.725-11.909c0.293,0.021,0.549-0.197,0.572-0.49c0.021-0.294-0.198-0.549-0.491-0.571
	c-0.195-0.015-19.727-1.342-32.579,12.239c-0.05,0.052-0.085,0.111-0.11,0.174l-1.988-5.294c0.136,0.072,0.295,0.082,0.436,0.029
	c0.074-0.028,0.143-0.072,0.2-0.133c12.498-13.203,31.534-11.923,31.725-11.908c0.294,0.021,0.549-0.198,0.571-0.491
	c0.022-0.292-0.197-0.549-0.49-0.571c-0.196-0.016-19.727-1.342-32.58,12.239c-0.049,0.051-0.085,0.112-0.109,0.174l-1.988-5.294
	c0.136,0.072,0.295,0.082,0.436,0.029c0.074-0.028,0.142-0.072,0.199-0.133c12.498-13.204,31.534-11.924,31.726-11.908
	c0.293,0.021,0.549-0.197,0.571-0.491c0.022-0.292-0.198-0.549-0.491-0.571c-0.196-0.015-19.727-1.342-32.58,12.239
	c-0.05,0.052-0.086,0.112-0.11,0.175l-1.988-5.296c0.136,0.072,0.295,0.082,0.436,0.029c0.073-0.027,0.142-0.072,0.199-0.132
	c12.498-13.204,31.534-11.924,31.726-11.907c0.293,0.018,0.549-0.198,0.572-0.491c0.021-0.293-0.198-0.55-0.491-0.572
	c-0.195-0.015-19.727-1.341-32.58,12.238c-0.049,0.052-0.086,0.112-0.109,0.176l-1.988-5.295c0.135,0.071,0.294,0.082,0.435,0.028
	c0.074-0.028,0.143-0.071,0.2-0.132c12.498-13.204,31.534-11.923,31.725-11.908c0.293,0.02,0.549-0.198,0.572-0.491
	c0.021-0.293-0.197-0.548-0.491-0.57c-0.195-0.015-19.727-1.341-32.579,12.239c-0.049,0.052-0.086,0.112-0.11,0.174l-2.403-6.4
	c-0.108-0.287-0.428-0.432-0.716-0.325c-0.288,0.108-0.433,0.429-0.325,0.716l2.403,6.399c-0.06-0.031-0.126-0.053-0.197-0.059
	c-18.615-1.764-32.445,12.09-32.583,12.23c-0.206,0.209-0.203,0.546,0.007,0.752s0.545,0.202,0.753-0.007
	c0.133-0.137,13.623-13.63,31.721-11.916c0.083,0.008,0.164-0.004,0.237-0.032c0.142-0.053,0.255-0.165,0.31-0.308l1.988,5.294
	c-0.06-0.032-0.127-0.054-0.198-0.06c-18.615-1.763-32.444,12.09-32.583,12.23c-0.206,0.209-0.202,0.547,0.007,0.753
	c0.209,0.206,0.545,0.2,0.753-0.007c0.133-0.138,13.622-13.632,31.721-11.917c0.083,0.008,0.164-0.003,0.237-0.031
	c0.141-0.053,0.255-0.166,0.31-0.309l1.989,5.295c-0.06-0.032-0.126-0.053-0.198-0.06c-18.616-1.765-32.445,12.09-32.583,12.23
	c-0.205,0.209-0.202,0.547,0.007,0.752c0.21,0.207,0.545,0.202,0.753-0.007c0.134-0.137,13.623-13.631,31.721-11.916
	c0.083,0.008,0.165-0.003,0.237-0.031c0.141-0.053,0.255-0.166,0.31-0.309l1.988,5.294c-0.06-0.03-0.126-0.052-0.197-0.059
	c-18.616-1.764-32.446,12.089-32.583,12.23c-0.206,0.21-0.203,0.547,0.007,0.753c0.209,0.206,0.545,0.202,0.753-0.007
	c0.133-0.137,13.623-13.63,31.721-11.917c0.083,0.008,0.165-0.004,0.238-0.031c0.141-0.053,0.255-0.166,0.309-0.309l1.989,5.295
	c-0.06-0.031-0.126-0.053-0.198-0.059c-18.615-1.764-32.444,12.09-32.583,12.23c-0.206,0.209-0.203,0.546,0.007,0.752
	c0.209,0.206,0.545,0.201,0.753-0.007c0.133-0.138,13.623-13.631,31.721-11.916c0.083,0.008,0.164-0.004,0.237-0.032
	c0.142-0.053,0.254-0.167,0.31-0.308l1.988,5.294c-0.061-0.032-0.126-0.054-0.198-0.06c-18.615-1.764-32.445,12.09-32.583,12.23
	c-0.206,0.209-0.203,0.546,0.007,0.752c0.209,0.207,0.545,0.202,0.754-0.006c0.133-0.139,13.623-13.63,31.721-11.917
	c0.083,0.008,0.165-0.004,0.237-0.031c0.142-0.053,0.255-0.166,0.31-0.309l1.988,5.294c-0.06-0.03-0.125-0.052-0.197-0.059
	c-18.615-1.765-32.445,12.09-32.583,12.23c-0.206,0.209-0.203,0.547,0.007,0.753c0.21,0.206,0.545,0.201,0.754-0.007
	c0.133-0.137,13.623-13.63,31.721-11.916c0.083,0.008,0.164-0.004,0.237-0.032c0.142-0.053,0.255-0.164,0.31-0.309l1.989,5.295
	c-0.061-0.031-0.126-0.053-0.198-0.059c-18.615-1.763-32.444,12.09-32.583,12.231c-0.206,0.209-0.203,0.545,0.007,0.751
	c0.21,0.207,0.545,0.202,0.753-0.006c0.134-0.137,13.623-13.631,31.721-11.916c0.083,0.008,0.165-0.004,0.238-0.031
	c0.141-0.053,0.254-0.166,0.31-0.309l2.087,5.559c-4.142-0.039-10.226,1.21-16.712,3.646c-10.586,3.975-18.329,9.628-17.762,12.873
	l-0.032,0.012l-20.052-53.4c-1.194-3.18,6.11-9.896,17.065-14.01c5.699-2.14,11.491-2.844,15.679-2.883
	c-4.104-0.773-11.253,0.179-18.826,3.022c-13.23,4.968-17.801,12.868-16.56,16.171l19.998,53.255l38.881-14.601l0.789-0.296
	l38.883-14.601l-19.999-53.255C280.757,250.37,272.118,247.431,258.887,252.398z"/>
<g>
	<path fill="#1F2421" d="M508.933,329.921c0,0-2.135-2.146-5.841-4.878c-3.707-2.732-36.537-20.522-37.651-18.697
		c-1.115,1.825,29.698,22.915,33.822,24.966c4.123,2.052,7.007,2.971,7.007,2.971l1.331-2.181L508.933,329.921z M529.019,337.886
		c-6.376-4.456-9.325-3.918-11.74-3.008l-2.748,4.497c0,0,2.453,6.364,9.223,7.131c6.768,0.768,14.96,3.714,14.96,3.714
		S535.394,342.343,529.019,337.886z M511.042,331.209l-2.664,4.361l4.316,2.637l2.664-4.36L511.042,331.209z"/>
	<path fill="#1F2421" d="M519.098,292.167c-11.701-1.135-24.987,12.929-17.793,20.614c4.298,4.592,5.143,8.406,4.482,11.202
		c2.479,1.909,4.104,3.425,4.674,3.976l6.975,4.262c3.339-0.976,7.002-0.551,12.998,3.641c6.881,4.809,10.41,13.049,10.557,13.398
		l2.187,5.188l-5.298-1.902c-0.08-0.03-8.011-2.861-14.404-3.585c-6.721-0.761-9.917-5.948-10.905-7.935l-7.348-4.49
		c-0.865-0.294-3.527-1.255-7.06-3.013c-0.416-0.208-1.062-0.578-1.882-1.079c-5.377,6.232-2.785,17.854,10.867,28.071
		c17.944,13.43,47.098,15.365,56.003-8.215C571.28,330.771,547.099,294.888,519.098,292.167z M522.052,306.566
		c-0.95-1.553-0.462-3.579,1.089-4.528c1.552-0.95,3.58-0.462,4.529,1.088c0.949,1.553,0.461,3.579-1.091,4.53
		C525.028,308.605,523.001,308.117,522.052,306.566z M531.71,313.894c-0.95-1.552-0.462-3.578,1.089-4.528
		c1.55-0.95,3.579-0.461,4.528,1.089c0.95,1.551,0.462,3.58-1.09,4.529C534.687,315.934,532.659,315.445,531.71,313.894z
		 M551.243,335.328c-1.552,0.95-3.58,0.463-4.529-1.089c-0.949-1.551-0.461-3.579,1.091-4.53c1.551-0.948,3.578-0.46,4.529,1.092
		C553.282,332.352,552.794,334.378,551.243,335.328z M545.313,323.5c-1.55,0.948-3.578,0.461-4.528-1.089
		c-0.951-1.553-0.463-3.58,1.089-4.528c1.551-0.952,3.579-0.463,4.528,1.088C547.351,320.522,546.864,322.55,545.313,323.5z"/>
</g>
<g>
	<path fill="#1F2421" d="M344.377,352.78c0.654-0.727,0.594-1.847-0.135-2.499l-6.347-5.691l-0.135-0.121l-6.347-5.692
		c-0.729-0.65-1.848-0.591-2.499,0.137l-33.74,29.41c-0.651,0.727-0.59,1.846,0.137,2.499l6.404,5.741l1.316,1.18l2.712,2.432
		l0.135,0.121l2.711,2.431l1.317,1.181l6.403,5.742c0.726,0.651,1.846,0.591,2.498-0.136L344.377,352.78z"/>
	<path fill="#1F2421" d="M294.078,372.254c0,0-1.02,7.498-5.743,13.722l6.834,6.13l6.836,6.129
		c5.675-5.374,13.017-7.201,13.017-7.201l-10.473-9.389L294.078,372.254z"/>
	<polygon fill="#1F2421" points="285.886,394.904 290.773,404.561 297.223,397.368 289.714,390.635 	"/>
</g>
<g id="XMLID_221_">
	<g id="XMLID_150_">
		<polygon id="XMLID_821_" fill="#1F2421" points="681.702,91.22 667.697,137.471 650.743,132.338 664.747,86.087 658.032,84.054 
			641.761,137.793 671.906,146.921 688.178,93.181 		"/>
	</g>
	<g id="XMLID_169_">
		<path id="XMLID_32_" fill="#1F2421" d="M707.842,45.439l-39.448-11.944c-3.209-0.972-6.599,0.843-7.571,4.052l-11.943,39.448
			c-0.972,3.209,0.842,6.599,4.051,7.57l39.448,11.944c3.21,0.972,6.6-0.842,7.571-4.051l11.944-39.448
			C712.865,49.801,711.051,46.411,707.842,45.439z M674.136,85.643c-11.399-3.452-17.843-15.491-14.391-26.891
			c3.451-11.4,15.491-17.843,26.891-14.392c11.399,3.452,17.843,15.491,14.391,26.891C697.575,82.651,685.536,89.095,674.136,85.643
			z"/>
	</g>
	<g id="XMLID_149_">
		<circle id="XMLID_820_" fill="#1F2421" cx="680.385" cy="65.002" r="1.81"/>
	</g>
	<g id="XMLID_152_">
		<path id="XMLID_692_" fill="#1F2421" d="M679.97,66.391l-6.219-7.468c-0.408-0.491-0.342-1.22,0.149-1.63
			c0.49-0.408,1.221-0.341,1.63,0.149l5.092,6.117l10.765-4.85c0.583-0.263,1.268-0.003,1.53,0.58s0.003,1.267-0.579,1.53
			L679.97,66.391z"/>
	</g>
	<g id="XMLID_153_">
		<g id="XMLID_157_">
			<g id="XMLID_159_">
				
					<rect id="XMLID_691_" x="692.807" y="69.495" transform="matrix(0.9571 0.2898 -0.2898 0.9571 50.2708 -199.1225)" fill="#1F2421" width="9.419" height="1.388"/>
			</g>
			<g id="XMLID_158_">
				
					<rect id="XMLID_690_" x="658.352" y="59.063" transform="matrix(0.9571 0.2898 -0.2898 0.9571 45.774 -189.5975)" fill="#1F2421" width="9.42" height="1.388"/>
			</g>
		</g>
		<g id="XMLID_154_">
			<g id="XMLID_156_">
				
					<rect id="XMLID_689_" x="684.811" y="43.036" transform="matrix(0.9571 0.2897 -0.2897 0.9571 43.2367 -196.5664)" fill="#1F2421" width="1.389" height="9.42"/>
			</g>
			<g id="XMLID_155_">
				
					<rect id="XMLID_688_" x="674.379" y="77.49" transform="matrix(0.9571 0.2896 -0.2896 0.9571 52.7354 -191.9831)" fill="#1F2421" width="1.388" height="9.42"/>
			</g>
		</g>
	</g>
	<g id="XMLID_162_">
		
			<rect id="XMLID_819_" x="636.317" y="137.205" transform="matrix(0.9571 0.2898 -0.2898 0.9571 68.7446 -184.6488)" fill="#1F2421" width="43.133" height="5.206"/>
	</g>
	<g id="XMLID_164_">
		<path id="XMLID_818_" fill="#1F2421" d="M697.936,45.159l-21.339-6.461c-1.375-0.417-2.153-1.87-1.736-3.246l0,0
			c0.416-1.376,1.87-2.153,3.245-1.737l21.339,6.461c1.377,0.417,2.153,1.87,1.736,3.246l0,0
			C700.765,44.798,699.313,45.576,697.936,45.159z"/>
	</g>
	<g id="XMLID_163_">
		<circle id="XMLID_817_" fill="#1F2421" cx="664.513" cy="116.997" r="5.489"/>
	</g>
	<g id="XMLID_166_">
		
			<rect id="XMLID_687_" x="668.195" y="89.015" transform="matrix(0.9571 0.2896 -0.2896 0.9571 58.3615 -189.3206)" fill="#1F2421" width="1.388" height="27.053"/>
	</g>
</g>
<g>
	<path fill="#1F2421" d="M501.826,61.564l-10.799-1.603l1.371-9.246c1.498-10.087-5.136-19.535-14.954-21.687l0.757-5.094
		c0.107-0.728-0.395-1.405-1.123-1.513c-0.727-0.108-1.404,0.394-1.513,1.122l-0.756,5.095c-10.019-0.792-19.11,6.321-20.607,16.408
		l-1.372,9.246l-10.801-1.603c-3.08-0.458-5.959,1.678-6.418,4.76l-5.302,35.725c-0.107,0.728,0.395,1.405,1.121,1.513
		c0.729,0.108,1.406-0.395,1.515-1.122l5.302-35.725c0.241-1.628,1.762-2.757,3.392-2.515l12.119,1.798l35.56,5.278l12.119,1.798
		c1.629,0.242,2.757,1.763,2.514,3.392l-5.302,35.725c-0.107,0.728,0.396,1.405,1.122,1.513c0.729,0.108,1.406-0.394,1.514-1.122
		l5.302-35.725C507.044,64.901,504.908,62.021,501.826,61.564z M475.743,31.419c8.635,1.281,14.747,9.016,14.164,17.58
		l-32.821-4.871C459.016,35.764,467.109,30.138,475.743,31.419z M455.466,54.684l1.177-7.927l32.926,4.886l-1.177,7.928
		L455.466,54.684z"/>
	<path fill="#1F2421" d="M490.811,103.5c0.729,0.108,1.405-0.394,1.514-1.122l4.526-30.497c0.408-2.752-1.498-5.323-4.251-5.732
		l-0.082-0.012c-2.753-0.409-5.323,1.498-5.731,4.25l-4.526,30.497c-0.107,0.728,0.395,1.406,1.122,1.513L490.811,103.5z
		 M489.421,70.779c0.194-1.299,1.406-2.199,2.706-2.006l0.082,0.012c1.299,0.193,2.198,1.406,2.005,2.705l-4.33,29.179l-4.793-0.711
		L489.421,70.779z"/>
	<path fill="#1F2421" d="M469.316,100.31c0.727,0.108,1.405-0.395,1.513-1.122l4.526-30.497c0.408-2.751-1.499-5.323-4.25-5.731
		l-0.082-0.012c-2.753-0.409-5.324,1.498-5.732,4.25l-4.526,30.497c-0.107,0.727,0.395,1.405,1.123,1.513L469.316,100.31z
		 M467.927,67.588c0.192-1.299,1.407-2.199,2.704-2.006l0.083,0.013c1.299,0.193,2.198,1.407,2.007,2.705l-4.331,29.179
		l-4.794-0.711L467.927,67.588z"/>
	<path fill="#1F2421" d="M447.822,97.12c0.728,0.108,1.404-0.395,1.513-1.122l4.525-30.497c0.409-2.752-1.498-5.323-4.25-5.732
		l-0.083-0.013c-2.752-0.408-5.323,1.499-5.731,4.25l-4.525,30.497c-0.109,0.728,0.395,1.405,1.121,1.513L447.822,97.12z
		 M446.432,64.399c0.192-1.299,1.406-2.199,2.705-2.006l0.083,0.012c1.299,0.192,2.198,1.406,2.005,2.705l-4.33,29.179l-4.794-0.711
		L446.432,64.399z"/>
</g>
<g>
	<path fill="#1F2421" d="M40.803,197.231c2.378-1.051,3.549-3.396,4.038-4.725c1.315,0.531,3.836,1.244,6.216,0.191
		c1.761-0.778,4.936-4.092,6.486-9.021c1.321-4.212,1.867-10.931-3.045-19.02c-5.187-8.533-11.19-8.151-15.315-6.328
		c-2.929,1.294-5.257,3.453-6.455,4.714c-1.43-3.117-1.609-6.064-0.529-8.761c1.901-4.748,7.2-7.59,9.319-8.565
		c0.28,1.553,0.697,4.787,0.066,8.035c-0.086,0.448,0.206,0.882,0.655,0.969c0.445,0.087,0.879-0.207,0.968-0.655
		c0.941-4.859-0.237-9.518-0.287-9.713c-0.06-0.227-0.211-0.417-0.419-0.525c-0.207-0.108-0.449-0.124-0.671-0.042
		c-0.345,0.13-8.498,3.232-11.162,9.874c-1.259,3.133-1.07,6.515,0.55,10.055c-1.738,0.039-4.91,0.306-7.845,1.603
		c-4.124,1.823-8.448,6.007-5.626,15.586c2.675,9.078,8.012,13.196,12.019,15.053C34.453,198.129,39.041,198.01,40.803,197.231z
		 M19.333,180.437c-1.993-6.767-0.409-11.346,4.711-13.608c3.856-1.706,8.347-1.453,8.391-1.45c0.269,0.017,0.528-0.098,0.697-0.307
		c0.028-0.035,2.862-3.527,6.719-5.231c5.121-2.264,9.573-0.353,13.235,5.676c4.594,7.559,4.101,13.779,2.881,17.666
		c-1.513,4.813-4.464,7.513-5.577,8.005c-2.581,1.141-5.617-0.529-5.646-0.545c-0.227-0.129-0.501-0.143-0.741-0.037
		c-0.238,0.105-0.411,0.317-0.47,0.572c-0.008,0.034-0.801,3.395-3.398,4.542c-1.113,0.493-5.097,0.858-9.674-1.263
		C26.764,192.745,21.833,188.92,19.333,180.437z"/>
</g>
<g>
	<path fill="#1F2421" d="M565.09,111.948c4.13,1.703,7.846,4.392,10.744,7.773c0.001,0.002,0.003,0.004,0.005,0.007
		c1.422,1.662,3.568,2.39,5.618,2.08l2.433,3.68c0.778,1.176,2.33,1.537,3.541,0.86c1.722,1.941,4.657,2.378,6.884,0.907
		c2.226-1.473,2.974-4.345,1.858-6.688c1.099-0.851,1.373-2.42,0.596-3.597l-2.434-3.679c1.088-1.764,1.257-4.023,0.284-5.984
		c-1.949-3.93-2.969-8.45-2.95-13.069c0.016-3.796-1.087-7.484-3.188-10.661c-5.899-8.92-17.999-11.326-26.873-5.277
		c-8.378,5.709-10.881,17-5.698,25.702C558.057,107.61,561.232,110.358,565.09,111.948z M593.207,125.583
		c-1.297,0.856-2.981,0.671-4.069-0.35l5.342-3.533C594.994,123.101,594.504,124.724,593.207,125.583z M593.62,115.849l-1.434,0.948
		c-0.463,0.306-0.589,0.928-0.283,1.39c0.305,0.462,0.928,0.588,1.391,0.284l1.435-0.949l0.367,0.555
		c0.205,0.311,0.119,0.731-0.191,0.938l-8.404,5.558c-0.312,0.206-0.731,0.119-0.937-0.191l-0.368-0.556l1.436-0.948
		c0.461-0.305,0.588-0.928,0.282-1.39c-0.306-0.462-0.928-0.589-1.39-0.284l-1.435,0.949l-0.657-0.993
		c0.17-0.09,0.338-0.189,0.501-0.298l8.562-5.661c0.164-0.109,0.32-0.223,0.471-0.344L593.62,115.849z M557.632,102.975
		c-4.64-7.794-2.397-17.904,5.105-23.018c7.941-5.406,18.786-3.264,24.069,4.726c1.883,2.847,2.87,6.148,2.857,9.546
		c-0.021,4.931,1.07,9.761,3.158,13.97c0.747,1.507,0.497,3.277-0.532,4.516l-4.445,2.94l-5.708-8.631l4.766-3.152
		c0.463-0.305,0.589-0.928,0.283-1.389c-0.305-0.462-0.927-0.589-1.391-0.284l-11.205,7.411c-0.463,0.305-0.589,0.927-0.282,1.391
		c0.305,0.461,0.928,0.588,1.389,0.282l4.768-3.151l5.708,8.631l-4.446,2.94c-1.541,0.461-3.265,0-4.359-1.273
		c-0.002-0.002-0.003-0.005-0.004-0.006c-3.105-3.625-7.084-6.504-11.508-8.33C562.4,108.669,559.558,106.208,557.632,102.975z"/>
	<path fill="#1F2421" d="M560.687,101.155c-1.877-3.153-2.397-6.856-1.466-10.425c0.14-0.537-0.182-1.085-0.717-1.225
		c-0.535-0.14-1.085,0.181-1.225,0.717c-1.069,4.093-0.472,8.341,1.683,11.959c0.285,0.477,0.9,0.633,1.377,0.349
		c0.014-0.008,0.025-0.017,0.039-0.025C560.822,102.211,560.961,101.618,560.687,101.155z"/>
</g>
</svg>
