<?xml version="1.0" encoding="utf-8"?>
<!-- Generator: Adobe Illustrator 16.0.0, SVG Export Plug-In . SVG Version: 6.00 Build 0)  -->
<!DOCTYPE svg PUBLIC "-//W3C//DTD SVG 1.1//EN" "http://www.w3.org/Graphics/SVG/1.1/DTD/svg11.dtd">
<svg version="1.1" id="Layer_1" xmlns="http://www.w3.org/2000/svg" xmlns:xlink="http://www.w3.org/1999/xlink" x="0px" y="0px"
	 width="270.94px" height="291.901px" viewBox="0 0 270.94 291.901" enable-background="new 0 0 270.94 291.901"
	 xml:space="preserve">
<g>
	<g>
		<g>
			<g>
				<path fill="#CECECA" d="M19.559,234.022c0.126,0.143,0.251,0.285,0.377,0.428c0-2.356,0-4.714,0-7.07
					c-0.006,0.005-0.013,0.01-0.02,0.016c-2.303,1.842-1.534,5.125,0,7.07c22.122,28.055,51.925,51.503,88.208,56.469
					c36.114,4.941,70.822-9.563,98.428-32.184c2.045-1.676,1.868-5.363,0-7.07c-6.607-6.042-9.591-13.533-9.53-22.453
					c0.029-4.231-5.552-6.797-8.536-3.535c-5.853,6.398-14.294,7.498-21.544,2.725c-7.093-4.671-7.654-14.537-3.618-21.244
					c1.115-1.853,0.856-4.573-0.782-6.059c-15.534-14.097-29.731-29.548-42.998-45.781c-2.643-3.233-7.118-0.889-8.357,2.206
					c-4.575,11.429-19.009,12.724-26.806,4.03c-8.226-9.172-0.93-23.953,10.491-25.291c3.339-0.392,6.783-4.095,4.317-7.523
					c-5.049-7.021-9.97-14.129-14.768-21.324c-2.1-3.149-6.564-3.294-8.635,0c-7.643,12.159-18.651,22.741-31.921,28.559
					c2.448,0.996,4.896,1.992,7.345,2.988c-0.001-0.005-0.002-0.011-0.004-0.016c-0.615-2.46-3.642-4.445-6.15-3.492
					c-14.567,5.535-28.547,13.212-37.646,26.24c-6.533,9.354-8.44,21.013-6.913,32.147C2.515,208.563,10.079,222.729,19.559,234.022
					c4.151,4.946,11.187-2.167,7.071-7.07c-0.343-0.409-0.678-0.823-1.011-1.24c-0.849-1.067,0.416,0.553-0.191-0.243
					c-0.315-0.414-0.625-0.833-0.933-1.252c-1.775-2.417-3.414-4.932-4.956-7.503c-4.166-6.948-7.314-14.416-8.897-22.381
					c-5.017-25.251,15.856-41.159,37.071-49.22c-2.05-1.164-4.1-2.328-6.15-3.492c0.001,0.005,0.002,0.011,0.004,0.016
					c0.853,3.412,4.495,4.238,7.345,2.988c14.764-6.474,27.031-18.66,35.509-32.147c-2.878,0-5.756,0-8.635,0
					c4.798,7.195,9.718,14.303,14.768,21.324c1.439-2.508,2.878-5.016,4.317-7.523c-19.347,2.267-30.673,23.624-19.16,40.313
					c5.43,7.872,15.307,11.981,24.712,10.534c9.672-1.489,16.838-8.015,20.406-16.929c-2.786,0.735-5.571,1.471-8.357,2.206
					c13.268,16.233,27.464,31.686,42.998,45.781c-0.261-2.02-0.521-4.039-0.782-6.059c-6.61,10.985-4.635,24.917,5.133,33.342
					c10.561,9.107,26.541,7.348,35.736-2.705c-2.845-1.178-5.69-2.356-8.536-3.535c-0.078,11.406,3.988,21.777,12.458,29.523
					c0-2.356,0-4.714,0-7.07c-25.055,20.53-57.148,33.928-89.947,29.439c-34.182-4.678-61.799-27.413-82.546-53.725
					c0,2.356,0,4.714,0,7.07c0.006-0.005,0.013-0.01,0.02-0.016c2.224-1.778,1.644-5.205,0-7.07
					c-0.126-0.143-0.251-0.285-0.377-0.428C22.358,222.104,15.313,229.205,19.559,234.022z"/>
				<path fill="#CECECA" d="M97.98,233.137c1.617-8.722,8.326-14.243,17.242-13.811c8.864,0.43,14.279,9.126,13.885,17.229
					c-0.431,8.866-9.126,14.278-17.23,13.885c-9.551-0.463-14.713-10.103-13.718-18.632c0.746-6.398-9.262-6.326-10,0
					c-1.571,13.474,7.69,25.823,20.985,28.29c13.844,2.568,27.095-7.192,29.621-20.811c2.568-13.843-7.193-27.093-20.811-29.619
					c-13.841-2.567-27.093,7.195-29.617,20.811C87.169,236.781,96.806,239.472,97.98,233.137z"/>
			</g>
		</g>
		<g>
			<g>
				<path fill="#CECECA" d="M255.39,195.89c16.13-33.842,21.03-72.079,8.392-107.884c-10.434-29.559-31.624-54.869-58.28-71.198
					C183.253,3.179,154.725-4.846,129.088,3.225c-12.173,3.832-22.324,11.459-30.023,21.54c-4.255,5.571-7.324,11.937-9.792,18.469
					c-0.641,1.695-1.196,3.422-1.725,5.154c-0.931,3.047-0.075,6.598,0.064,9.743c0.325,7.339-0.156,14.721-1.457,21.948
					c-0.098,0.496-0.195,0.992-0.293,1.488c-0.329,1.671-0.115,3.676,1.286,4.865c42.602,36.153,84.261,77.498,110.113,127.636
					c0.996-2.448,1.992-4.896,2.988-7.345c-2.023,0.852-3.997,1.727-5.942,2.746c-1.462,0.766-2.588,2.654-2.477,4.317
					c0.094,1.404,0.091,2.742-0.004,4.146c-0.261,3.853,4.421,6.141,7.523,4.317c10.724-6.303,22.359-6.194,31.23,3.089
					c2.387,2.498,6.038,1.528,7.853-1.012C244.871,215.315,250.535,205.846,255.39,195.89c2.814-5.771-5.809-10.843-8.635-5.047
					c-4.855,9.956-10.52,19.426-16.959,28.438c2.618-0.338,5.235-0.675,7.853-1.012c-11.935-12.49-28.848-13.176-43.348-4.653
					c2.508,1.439,5.016,2.878,7.523,4.317c0.095-1.404,0.098-2.742,0.004-4.146c-0.826,1.439-1.651,2.878-2.477,4.317
					c1.156-0.638,2.34-1.218,3.554-1.738c3.048-1.283,4.609-4.201,2.988-7.345c-26.217-50.847-68.471-92.995-111.676-129.661
					c0.429,1.622,0.857,3.243,1.286,4.865c1.234-6.265,1.939-12.586,2.151-18.967c0.211-6.357-1.179-12.483,0.956-18.53
					c2.145-6.076,5.254-12.029,9.239-17.108c7.267-9.261,17.274-15.353,28.671-18.069c25.628-6.108,53.028,5.365,73.437,20.258
					c21.654,15.802,38.125,38.864,46.033,64.449c9.748,31.538,4.798,65.144-9.234,94.585
					C243.996,196.632,252.617,201.709,255.39,195.89z"/>
				<path fill="#CECECA" d="M162.097,57.029c-1.617,8.725-8.325,14.243-17.244,13.808c-8.865-0.432-14.278-9.124-13.884-17.229
					c0.431-8.863,9.124-14.276,17.227-13.882c9.553,0.465,14.716,10.099,13.722,18.632c-0.746,6.398,9.263,6.326,10,0
					c1.571-13.476-7.691-25.825-20.989-28.29c-13.842-2.566-27.093,7.189-29.617,20.808c-2.566,13.843,7.188,27.095,20.809,29.619
					c13.843,2.566,27.095-7.187,29.619-20.808C172.908,53.385,163.271,50.694,162.097,57.029z"/>
				<path fill="#CECECA" d="M220.966,96.342c-1.618,8.723-8.325,14.242-17.242,13.81c-8.865-0.43-14.278-9.125-13.885-17.229
					c0.43-8.864,9.124-14.277,17.227-13.885c9.552,0.462,14.715,10.104,13.722,18.633c-0.745,6.398,9.264,6.327,10,0
					c1.569-13.476-7.693-25.823-20.989-28.291c-13.841-2.57-27.094,7.195-29.617,20.811c-2.566,13.844,7.192,27.093,20.811,29.619
					c13.842,2.567,27.091-7.193,29.617-20.81C231.778,92.698,222.142,90.007,220.966,96.342z"/>
				<path fill="#CECECA" d="M225.812,161.867c-1.619,8.725-8.326,14.245-17.246,13.812c-8.865-0.432-14.277-9.125-13.882-17.229
					c0.432-8.864,9.121-14.279,17.227-13.886c9.551,0.465,14.715,10.102,13.722,18.633c-0.745,6.398,9.263,6.326,10,0
					c1.569-13.475-7.693-25.824-20.989-28.29c-13.843-2.568-27.093,7.192-29.617,20.811c-2.565,13.843,7.186,27.095,20.807,29.619
					c13.845,2.566,27.095-7.189,29.621-20.811C236.624,158.224,226.987,155.532,225.812,161.867z"/>
			</g>
		</g>
		<g>
			<g>
				<g>
					<path fill="#CECECA" d="M269.248,251.126c0.025-0.044,0.052-0.087,0.081-0.129c-2.878-1.683-5.756-3.365-8.635-5.048
						c-0.025,0.044-0.05,0.088-0.075,0.132c1.882-0.766,3.764-1.532,5.646-2.298c-0.002-0.001-0.004-0.001-0.006-0.002
						c-2.586-0.862-5.457,0.971-6.15,3.492c-0.355,1.29-0.172,2.698,0.504,3.853c0.684,1.167,1.728,1.878,2.988,2.298
						c0.002,0.001,0.004,0.001,0.006,0.002c2.095,0.698,4.582-0.432,5.646-2.298c0.025-0.044,0.05-0.087,0.075-0.131
						c1.342-2.374,0.581-5.45-1.794-6.842c-1.155-0.676-2.562-0.858-3.853-0.504c-1.309,0.36-2.252,1.19-2.988,2.298
						c-0.028,0.042-0.055,0.086-0.081,0.13c-1.429,2.323-0.517,5.487,1.794,6.841C264.798,254.32,267.822,253.443,269.248,251.126z"
						/>
				</g>
			</g>
			<g>
				<g>
					<path fill="#CECECA" d="M255.303,241.319c-0.008,0.007-0.016,0.014-0.023,0.021c2.618,2.02,5.235,4.039,7.853,6.059
						c0.066-0.109,0.133-0.219,0.202-0.326c-0.26,0.337-0.521,0.674-0.782,1.012c0.001-0.002,0.003-0.004,0.004-0.005
						c-2.618-2.021-5.235-4.04-7.853-6.06c-0.058,0.105-0.122,0.207-0.183,0.311c-1.399,2.341-0.539,5.475,1.794,6.841
						c2.369,1.388,5.445,0.542,6.841-1.794c0.062-0.103,0.125-0.205,0.183-0.311c1.087-1.977,0.838-4.439-0.782-6.059
						c-0.934-0.934-2.215-1.465-3.536-1.465c-1.232,0-2.71,0.498-3.536,1.465c-0.407,0.477-0.691,0.854-0.988,1.344
						c-1.165,1.916-0.786,4.491,0.782,6.059c0.934,0.934,2.215,1.465,3.536,1.465c1.369,0,2.542-0.555,3.536-1.465
						c0.008-0.007,0.016-0.014,0.023-0.021c2.009-1.842,1.863-5.207,0-7.07c-0.934-0.934-2.215-1.465-3.536-1.465
						C257.469,239.854,256.296,240.409,255.303,241.319z"/>
				</g>
			</g>
			<g>
				<g>
					<path fill="#CECECA" d="M235.926,270.116c13.404-1.356,26.21-7.031,33.321-18.99c-1.882,0.766-3.764,1.532-5.646,2.298
						c0.002,0.001,0.004,0.001,0.006,0.002c-0.996-2.448-1.992-4.896-2.988-7.345c-0.048,0.083-0.097,0.166-0.145,0.25
						c-3.259,5.604,5.19,10.466,8.635,5.047c4.013-6.313,0.987-13.792-6.617-14.597c-4.817-0.51-10.91,1.139-14.291-3.324
						c-4.607-6.083-7.706-12.898-13.514-18.068c-6.565-5.844-15.321-8.367-23.99-7.535c-6.871,0.659-19.264,4.28-22.136,11.373
						c-3.198,7.898-1.778,18.68,1.453,26.341C197.543,263.418,217.554,271.332,235.926,270.116c6.4-0.424,6.441-10.426,0-10
						c-13.765,0.911-28.291-3.533-35.576-16.008c-3.336-5.713-3.881-12.764-2.979-19.193c0.408-2.907,4.268-4.133,6.867-5.226
						c3.566-1.501,7.3-2.088,11.145-2.022c13.709,0.233,18.156,13.623,25.479,22.527c2.496,3.035,5.705,4.898,9.521,5.784
						c2.33,0.541,4.795,0.663,7.175,0.768c1.218,0.054,2.439,0.044,3.659,0.044c3.199,0-0.554-0.757-0.743-0.459
						c2.878,1.682,5.756,3.364,8.635,5.047c0.048-0.083,0.097-0.167,0.145-0.25c1.69-2.906,0.057-6.33-2.988-7.345
						c-0.002-0.001-0.004-0.001-0.006-0.002c-2.123-0.708-4.546,0.447-5.646,2.298c-5.195,8.737-14.865,13.043-24.687,14.037
						C229.574,260.759,229.512,270.766,235.926,270.116z"/>
				</g>
			</g>
			<g>
				<g>
					<path fill="#CECECA" d="M205.892,209.021c-26.812-52.008-70.348-94.986-114.73-132.235
						c-7.993-6.708-16.151-13.216-24.418-19.583c-5.913-4.554-13.894-13.12-21.123-6.033c-6.153,6.032,3.014,17.232,6.209,22.763
						c5.406,9.362,11.054,18.583,16.871,27.695c31.253,48.95,68.607,97.754,117.262,130.535c3.379,2.276,7.265-0.815,7.523-4.317
						c0.159-2.155-0.039-5.377,1.567-7.025c1.928-1.979,5.341-3.41,7.85-4.454c5.864-2.439,3.295-12.119-2.658-9.643
						c-4.429,1.843-8.529,3.986-12.263,7.025c-3.989,3.248-4.151,9.425-4.496,14.097c2.508-1.439,5.016-2.878,7.523-4.317
						C142.179,190.628,105.2,140.841,74.17,91.59c-5.434-8.625-10.672-17.376-15.73-26.228c-1.648-2.884-3.269-5.785-4.867-8.697
						c-0.646,0.532-1.292,1.065-1.938,1.597c0.365,0.269,0.73,0.538,1.095,0.808c0.599,0.442,1.195,0.887,1.792,1.331
						c1.62,1.207,3.23,2.425,4.838,3.647c18.723,14.24,36.672,29.531,53.865,45.579c32.6,30.428,63.471,64.556,84.033,104.439
						C200.213,219.801,208.842,214.741,205.892,209.021z"/>
				</g>
			</g>
		</g>
	</g>
</g>
</svg>
