<?xml version="1.0" encoding="utf-8"?>
<!-- Generator: Adobe Illustrator 16.0.0, SVG Export Plug-In . SVG Version: 6.00 Build 0)  -->
<!DOCTYPE svg PUBLIC "-//W3C//DTD SVG 1.1//EN" "http://www.w3.org/Graphics/SVG/1.1/DTD/svg11.dtd">
<svg version="1.1" id="Layer_1" xmlns="http://www.w3.org/2000/svg" xmlns:xlink="http://www.w3.org/1999/xlink" x="0px" y="0px"
	 width="279.579px" height="329.642px" viewBox="0 0 279.579 329.642" enable-background="new 0 0 279.579 329.642"
	 xml:space="preserve">
<g>
	<g>
		<g>
			<g>
				<path fill="#CECECA" d="M36.311,23.121c0,19.83,0,39.66,0,59.49c0,6.449,10,6.449,10,0c0-19.83,0-39.66,0-59.49
					C46.311,16.672,36.311,16.672,36.311,23.121L36.311,23.121z"/>
			</g>
		</g>
		<g>
			<g>
				<path fill="#CECECA" d="M36.311,110.425c0,45.273,0,90.546,0,135.819c0,0.052,0,0.103,0,0.155c0,6.449,10,6.449,10,0
					c0-45.273,0-90.546,0-135.819c0-0.052,0-0.103,0-0.155C46.311,103.976,36.311,103.976,36.311,110.425L36.311,110.425z"/>
			</g>
		</g>
		<g>
			<g>
				<circle fill="#CECECA" cx="23.445" cy="28.724" r="5.118"/>
			</g>
			<g>
				<circle fill="#CECECA" cx="23.445" cy="55.184" r="5.118"/>
			</g>
			<g>
				<circle fill="#CECECA" cx="23.445" cy="81.645" r="5.118"/>
			</g>
			<g>
				<circle fill="#CECECA" cx="23.445" cy="108.106" r="5.118"/>
			</g>
			<g>
				<circle fill="#CECECA" cx="23.445" cy="134.567" r="5.118"/>
			</g>
			<g>
				<circle fill="#CECECA" cx="23.445" cy="161.028" r="5.118"/>
			</g>
			<g>
				<circle fill="#CECECA" cx="23.445" cy="187.488" r="5.118"/>
			</g>
			<g>
				<circle fill="#CECECA" cx="23.445" cy="213.949" r="5.118"/>
			</g>
			<g>
				<circle fill="#CECECA" cx="23.445" cy="240.41" r="5.118"/>
			</g>
		</g>
		<g>
			<g>
				<path fill="#CECECA" d="M65.648,38.842c21.375,0,42.749,0,64.124,0c6.448,0,6.448-10,0-10c-21.375,0-42.749,0-64.124,0
					C59.199,28.842,59.199,38.842,65.648,38.842L65.648,38.842z"/>
			</g>
		</g>
		<g>
			<g>
				<path fill="#CECECA" d="M65.648,73.317c41.462,0,82.925,0,124.387,0c6.449,0,6.449-10,0-10c-41.462,0-82.925,0-124.387,0
					C59.199,63.317,59.199,73.317,65.648,73.317L65.648,73.317z"/>
			</g>
		</g>
		<g>
			<g>
				<path fill="#CECECA" d="M65.648,104.221c41.462,0,82.925,0,124.387,0c6.449,0,6.449-10,0-10c-41.462,0-82.925,0-124.387,0
					C59.199,94.221,59.199,104.221,65.648,104.221L65.648,104.221z"/>
			</g>
		</g>
		<g>
			<g>
				<path fill="#CECECA" d="M65.648,135.124c41.462,0,82.925,0,124.387,0c6.449,0,6.449-10,0-10c-41.462,0-82.925,0-124.387,0
					C59.199,125.124,59.199,135.124,65.648,135.124L65.648,135.124z"/>
			</g>
		</g>
		<g>
			<g>
				<path fill="#CECECA" d="M65.648,166.028c41.462,0,82.925,0,124.387,0c6.449,0,6.449-10,0-10c-41.462,0-82.925,0-124.387,0
					C59.199,156.028,59.199,166.028,65.648,166.028L65.648,166.028z"/>
			</g>
		</g>
		<g>
			<g>
				<path fill="#CECECA" d="M65.648,196.932c39.212,0,78.423,0,117.635,0c6.449,0,6.449-10,0-10c-39.212,0-78.423,0-117.635,0
					C59.199,186.932,59.199,196.932,65.648,196.932L65.648,196.932z"/>
			</g>
		</g>
		<g>
			<g>
				<path fill="#CECECA" d="M65.648,227.836c35.001,0,70.003,0,105.004,0c6.449,0,6.449-10,0-10c-35.001,0-70.003,0-105.004,0
					C59.199,217.836,59.199,227.836,65.648,227.836L65.648,227.836z"/>
			</g>
		</g>
		<g>
			<path fill="#CECECA" stroke="#CECECA" stroke-width="4" stroke-miterlimit="10" d="M256.081,61.191l-15.142-5.772
				c-1.409-0.538-2.117-2.118-1.582-3.531l7.152-18.753c2.128-5.583,8.402-8.394,13.985-6.266c5.585,2.129,8.396,8.404,6.267,13.987
				L259.61,59.61C259.074,61.021,257.493,61.728,256.081,61.191z M245.446,51.282l10.027,3.823l6.176-16.197
				c1.054-2.765-0.339-5.872-3.103-6.929c-2.766-1.054-5.872,0.339-6.926,3.105L245.446,51.282z"/>
		</g>
		<g>
			<path fill="#CECECA" stroke="#CECECA" stroke-width="4" stroke-miterlimit="10" d="M159.989,303.725l-8.818-3.361
				c-1.178-0.45-1.896-1.646-1.738-2.9c0.028-0.225,2.931-22.873,10.198-46.336c0.223-0.723,0.735-1.318,1.414-1.648
				c0.682-0.331,1.468-0.368,2.174-0.099l21.724,8.283c0.706,0.268,1.269,0.819,1.558,1.52c0.285,0.698,0.271,1.484-0.044,2.173
				c-10.196,22.346-23.109,41.178-23.239,41.363C162.501,303.759,161.168,304.173,159.989,303.725z M155.157,296.025l4.745,1.811
				c3.225-4.888,12.408-19.27,20.35-36.105l-16.241-6.192C158.727,273.388,156.004,290.232,155.157,296.025z"/>
		</g>
		<g>
			<path fill="#CECECA" stroke="#CECECA" stroke-width="4" stroke-miterlimit="10" d="M147.568,327.461l-2.934-1.119
				c-1.272-0.484-1.993-1.832-1.69-3.161c0.028-0.125,2.892-12.642,7.405-25.948c0.24-0.707,0.756-1.281,1.429-1.599
				c0.671-0.313,1.442-0.346,2.139-0.08l7.226,2.757c0.695,0.264,1.253,0.8,1.542,1.482c0.292,0.684,0.293,1.457,0.002,2.142
				c-5.49,12.935-11.687,24.181-11.747,24.294C150.278,327.422,148.842,327.948,147.568,327.461z M154.637,301.684
				c-1.547,4.75-2.863,9.286-3.891,13.039c1.731-3.485,3.771-7.745,5.779-12.319L154.637,301.684z"/>
		</g>
		<g>
			<path fill="#CECECA" stroke="#CECECA" stroke-width="4" stroke-miterlimit="10" d="M181.917,264.959l-21.302-8.119
				c-1.41-0.538-2.118-2.118-1.582-3.528l73.348-192.375c0.538-1.409,2.118-2.118,3.53-1.581l21.3,8.123
				c1.413,0.537,2.121,2.117,1.582,3.53L185.448,263.38C184.91,264.79,183.33,265.5,181.917,264.959z M165.122,252.704l16.188,6.169
				l71.396-187.259l-16.188-6.171L165.122,252.704z"/>
		</g>
		<g>
			<path fill="#CECECA" stroke="#CECECA" stroke-width="4" stroke-miterlimit="10" d="M269.97,78.197l-38.764-14.781
				c-1.413-0.537-2.122-2.118-1.583-3.531l3.899-10.221c0.536-1.413,2.118-2.121,3.529-1.582l38.765,14.78
				c1.413,0.536,2.121,2.118,1.582,3.528l-3.896,10.225C272.962,78.028,271.382,78.736,269.97,78.197z M235.71,59.28l33.653,12.832
				L271.313,67l-33.654-12.833L235.71,59.28z"/>
		</g>
		<g>
			<path fill="#CECECA" stroke="#CECECA" stroke-width="4" stroke-miterlimit="10" d="M247.313,137.624l-7.455-2.842
				c-1.411-0.537-2.12-2.119-1.582-3.529l22.656-59.429c0.54-1.409,2.122-2.119,3.532-1.582l7.455,2.843
				c1.414,0.538,2.121,2.12,1.583,3.53l-22.659,59.429C250.306,137.456,248.724,138.165,247.313,137.624z M244.361,130.644
				l2.344,0.895l20.708-54.314l-2.343-0.895L244.361,130.644z"/>
		</g>
		<g>
			<g>
				<path fill="#CECECA" d="M156.283,258.303c-48.366,0-96.732,0-145.1,0c-1.967,0-3.934,0-5.9,0c1.667,1.667,3.333,3.333,5,5
					c-0.05-44.994-0.099-89.989-0.148-134.983C10.09,87.314,10.045,46.308,10,5.302c-1.667,1.667-3.333,3.333-5,5
					c49.525,0,99.052,0,148.578,0c15.234,0,30.47,0,45.705,0c-1.439-0.826-2.878-1.651-4.317-2.477
					c4.61,7.466,9.222,14.933,13.832,22.399c2.368,3.834,4.735,7.668,7.103,11.502c1.449,2.346-0.117-2.384-0.117-1.264
					c0,1.185,0,2.37,0,3.555c0,18.261,0,36.523,0,54.784c0,6.449,10,6.449,10,0c0-11.584,0-23.169,0-34.754
					c0-6.677,0-13.354,0-20.03c0-3.283-0.145-5.552-1.91-8.411c-6.709-10.864-13.418-21.728-20.126-32.592
					c-2.688-4.352-11.569-2.713-15.862-2.713c-56.103,0-112.205,0-168.309,0c-4.858,0-9.717,0-14.576,0c-2.724,0-5.003,2.274-5,5
					c0.05,44.994,0.099,89.989,0.148,134.983c0.045,41.006,0.09,82.012,0.135,123.018c0.003,2.726,2.272,5,5,5
					c48.366,0,96.732,0,145.1,0c1.967,0,3.934,0,5.9,0C162.732,268.303,162.732,258.303,156.283,258.303L156.283,258.303z"/>
			</g>
		</g>
		<g>
			<g>
				<path fill="#CECECA" d="M215.783,162.157c-0.077,33.715-0.155,67.43-0.232,101.146c1.667-1.667,3.333-3.333,5-5
					c-12.423,0-24.845,0-37.268,0c-6.449,0-6.449,10,0,10c12.423,0,24.845,0,37.268,0c2.73,0,4.994-2.274,5-5
					c0.077-33.715,0.155-67.43,0.232-101.146C225.798,155.708,215.798,155.709,215.783,162.157L215.783,162.157z"/>
			</g>
		</g>
	</g>
</g>
</svg>
