<?xml version="1.0" encoding="utf-8"?>
<!-- Generator: Adobe Illustrator 16.0.0, SVG Export Plug-In . SVG Version: 6.00 Build 0)  -->
<!DOCTYPE svg PUBLIC "-//W3C//DTD SVG 1.1//EN" "http://www.w3.org/Graphics/SVG/1.1/DTD/svg11.dtd">
<svg version="1.1" id="Layer_1" xmlns="http://www.w3.org/2000/svg" xmlns:xlink="http://www.w3.org/1999/xlink" x="0px" y="0px"
	 width="395.415px" height="338.281px" viewBox="0 0 395.415 338.281" enable-background="new 0 0 395.415 338.281"
	 xml:space="preserve">
<g>
	<g>
		<g>
			<path fill="#E4DFDA" d="M164.938,43.104h29.495c2.025,0,3.963,0.764,5.303,2.106c1.344,1.341,2.264,3.122,2.264,5.148v39.745h10
				V50.359c0-4.639-2.252-8.055-5.305-11.108c-3.051-3.052-7.623-4.146-12.262-4.146h-29.495c-2.613,0-4.733,1.386-4.733,4
				S162.325,43.104,164.938,43.104z"/>
			<path fill="#E4DFDA" d="M127,295.104H16.671c-2.027,0-3.514-1.677-4.854-3.019c-1.343-1.342-1.816-4.031-1.816-6.059V50.359
				c0-2.026,0.474-3.808,1.816-5.148c1.341-1.343,2.827-2.106,4.854-2.106h31.954c2.612,0,4.732-1.386,4.732-4s-2.12-4-4.732-4
				H16.671c-4.641,0-8.763,1.095-11.814,4.146C1.805,42.305,0,45.721,0,50.359v235.668c0,4.64,1.805,9.465,4.856,12.518
				s7.174,5.56,11.814,5.56H127V295.104z"/>
		</g>
		<path fill="#E4DFDA" d="M48.543,18.518h35.706c0.847-4.599,3.082-8.711,6.257-11.885C94.604,2.535,100.265,0,106.518,0
			c6.251,0,11.912,2.535,16.01,6.633c3.174,3.174,5.411,7.286,6.258,11.885h35.909c2.613,0,4.731,2.118,4.731,4.731v35.884
			c0,2.614-2.118,4.733-4.731,4.733H48.543c-2.613,0-4.733-2.119-4.733-4.733V23.249C43.81,20.636,45.93,18.518,48.543,18.518
			L48.543,18.518z M88.617,27.982H53.274v26.419h106.688V27.982h-35.544l-0.128-0.002c-2.613-0.07-4.674-2.245-4.604-4.858h0.01
			c-0.002-0.087-0.004-0.174-0.002-0.262h0.004l-0.003-0.217c0-3.64-1.474-6.935-3.859-9.319c-2.384-2.384-5.679-3.859-9.317-3.859
			c-3.64,0-6.934,1.476-9.32,3.859c-2.384,2.385-3.858,5.68-3.858,9.319c0,0.132-0.001,0.211-0.002,0.253
			c0.009,0.117,0.014,0.234,0.014,0.353C93.351,25.863,91.231,27.982,88.617,27.982L88.617,27.982z M93.32,22.729l0.001,0.008
			C93.321,22.727,93.32,22.723,93.32,22.729L93.32,22.729z M119.711,22.836c0.003-0.209,0-0.074-0.005,0.024h0.005V22.836
			L119.711,22.836z"/>
		<path fill="#E4DFDA" d="M111.351,21.707c0-2.613-2.119-4.731-4.731-4.731c-2.615,0-4.733,2.118-4.733,4.731v1.597
			c0,2.613,2.118,4.732,4.733,4.732c2.612,0,4.731-2.119,4.731-4.732V21.707z"/>
		<path fill="#E4DFDA" d="M27.672,110.069h44.495c2.612,0,4.732,2.118,4.732,4.732v44.494c0,2.614-2.12,4.732-4.732,4.732H27.672
			c-2.613,0-4.731-2.118-4.731-4.732v-44.494C22.94,112.188,25.059,110.069,27.672,110.069L27.672,110.069z M67.434,119.534H32.404
			v35.029h35.029V119.534z"/>
		<path fill="#E4DFDA" d="M42.207,135.42c-1.674-1.991-4.646-2.248-6.636-0.573c-1.991,1.674-2.249,4.646-0.574,6.637l5.659,6.724
			l3.604-3.033l-3.62,3.047c1.683,2,4.669,2.257,6.669,0.574l0.039-0.034l17.023-14.655c1.981-1.704,2.205-4.691,0.501-6.673
			c-1.706-1.981-4.694-2.204-6.676-0.498l-13.412,11.545L42.207,135.42z"/>
		<path fill="#E4DFDA" d="M27.672,193.253h44.495c2.612,0,4.732,2.119,4.732,4.734v44.49c0,2.614-2.12,4.732-4.732,4.732H27.672
			c-2.613,0-4.731-2.118-4.731-4.732v-44.49C22.94,195.372,25.059,193.253,27.672,193.253L27.672,193.253z M67.434,202.719H32.404
			v35.028h35.029V202.719z"/>
		<path fill="#E4DFDA" d="M127,122.104H91.418c-2.613,0-4.732,2.386-4.732,5s2.119,5,4.732,5H127V122.104z"/>
		<path fill="#E4DFDA" d="M127,144.104H91.418c-2.613,0-4.732,1.887-4.732,4.5s2.119,4.5,4.732,4.5H127V144.104z"/>
		<path fill="#E4DFDA" d="M127,205.104H91.418c-2.613,0-4.732,2.387-4.732,5s2.119,5,4.732,5H127V205.104z"/>
		<path fill="#E4DFDA" d="M127,228.104H91.418c-2.613,0-4.732,2.887-4.732,5.5s2.119,5.5,4.732,5.5H127V228.104z"/>
		<g>
			<g>
				<g>
					<path fill="#E4DFDA" d="M149.621,93.769c48.111,0,96.223,0,144.333,0c23.257,0,46.513,0,69.77,0c1.569,0,3.138,0,4.706,0
						c9.265,0,16.985,7.599,16.985,16.899c0,5.107,0,10.215,0,15.323c0,56.854,0,113.707,0,170.56c0,4.924,0,9.848,0,14.771
						c0,9.339-7.762,16.89-17.039,16.89c-1.659,0-3.318,0-4.979,0c-23.465,0-46.931,0-70.396,0c-31.949,0-63.897,0-95.846,0
						c-16.283,0-32.642,0.463-48.919-0.043c-8.856-0.275-15.506-8.646-15.506-17.083c0-1.903,0-3.807,0-5.71
						c0-9.942,0-19.885,0-29.826c0-31.547,0-63.094,0-94.64c0-18.493,0-36.985,0-55.478c0-4.442,0-8.884,0-13.326
						C132.73,102.173,139.291,94.09,149.621,93.769c6.433-0.2,6.452-10.201,0-10c-16.214,0.504-26.891,13.259-26.891,28.959
						c0,8.01,0,16.02,0,24.029c0,30.551,0,61.103,0,91.655c0,25.401,0,50.803,0,76.203c0,9.982,0.923,19.164,8.816,26.607
						c7.116,6.71,15.967,6.989,24.979,6.989c56.2,0,112.401,0,168.602,0c10.9,0,21.8,0,32.7,0c6.191,0,12.684,0.507,18.694-1.213
						c13.394-3.831,18.893-16.544,18.893-29.301c0-8.932,0-17.864,0-26.797c0-55.229,0-110.457,0-165.686
						c0-11.979-3.655-23.033-15.246-28.779c-6.569-3.257-13.902-2.667-20.994-2.667c-25.603,0-51.204,0-76.807,0
						c-44.249,0-88.498,0-132.747,0C143.172,83.769,143.172,93.769,149.621,93.769z"/>
				</g>
			</g>
			<g>
				<g>
					<g>
						<path fill="#E4DFDA" d="M167.863,177.741c3.57,0,7.14,0,10.71,0c1.819,0,10.994-1.344,11.287,1.567
							c0.353,3.493,0,7.202,0,10.71c0,1.816,1.342,10.995-1.565,11.288c-3.493,0.353-7.202,0-10.71,0
							c-1.817,0-10.997,1.343-11.29-1.566c-0.353-3.493,0-7.202,0-10.71C166.295,187.211,164.951,178.035,167.863,177.741
							c6.353-0.641,6.415-10.647,0-10c-15.493,1.563-11.568,20.96-11.568,31.999c0,15.488,22.121,11.566,32,11.566
							c15.487,0,11.565-22.118,11.565-31.998c0-15.489-22.116-11.567-31.997-11.567
							C161.415,167.741,161.415,177.741,167.863,177.741z"/>
					</g>
				</g>
				<g>
					<g>
						<path fill="#E4DFDA" d="M221.86,177.741c3.57,0,7.14,0,10.71,0c1.819,0,10.995-1.343,11.288,1.567
							c0.352,3.493,0,7.202,0,10.71c0,1.818,1.343,10.995-1.566,11.288c-3.493,0.353-7.202,0-10.71,0
							c-1.817,0-10.995,1.343-11.288-1.566c-0.353-3.493,0-7.202,0-10.71C220.294,187.213,218.951,178.034,221.86,177.741
							c6.353-0.641,6.415-10.647,0-10c-15.491,1.563-11.566,20.961-11.566,31.999c0,15.488,22.118,11.566,31.998,11.566
							c15.488,0,11.566-22.117,11.566-31.998c0-15.489-22.117-11.567-31.998-11.567C215.412,167.741,215.412,177.741,221.86,177.741
							z"/>
					</g>
				</g>
				<g>
					<g>
						<path fill="#E4DFDA" d="M275.856,177.741c3.569,0,7.14,0,10.709,0c1.817,0,10.995-1.343,11.289,1.567
							c0.353,3.493,0,7.202,0,10.71c0,1.819,1.344,10.994-1.568,11.288c-3.493,0.353-7.201,0-10.709,0
							c-1.817,0-10.995,1.343-11.289-1.566c-0.353-3.493,0-7.202,0-10.71C274.288,187.211,272.944,178.035,275.856,177.741
							c6.353-0.641,6.415-10.647,0-10c-15.493,1.563-11.568,20.96-11.568,31.999c0,15.487,22.118,11.566,31.998,11.566
							c15.49,0,11.568-22.116,11.568-31.998c0-15.489-22.118-11.567-31.998-11.567C269.408,167.741,269.408,177.741,275.856,177.741
							z"/>
					</g>
				</g>
				<g>
					<g>
						<path fill="#E4DFDA" d="M329.854,177.741c3.569,0,7.14,0,10.709,0c1.817,0,10.995-1.343,11.289,1.567
							c0.353,3.493,0,7.202,0,10.71c0,1.819,1.344,10.994-1.568,11.288c-3.493,0.353-7.201,0-10.709,0
							c-1.816,0-10.998,1.342-11.291-1.566c-0.353-3.493,0-7.202,0-10.71C328.284,187.209,326.939,178.035,329.854,177.741
							c6.353-0.641,6.415-10.646,0-10c-8.679,0.875-11.57,7.113-11.57,14.947c0,5.684,0,11.368,0,17.052
							c0,15.487,22.12,11.566,32,11.566c15.49,0,11.568-22.117,11.568-31.998c0-15.488-22.118-11.567-31.998-11.567
							C323.406,167.741,323.406,177.741,329.854,177.741z"/>
					</g>
				</g>
			</g>
			<g>
				<g>
					<g>
						<path fill="#E4DFDA" d="M167.863,222.98c3.57,0,7.14,0,10.71,0c1.82,0,10.994-1.344,11.287,1.568
							c0.352,3.493,0,7.201,0,10.709c0,1.816,1.342,10.995-1.565,11.288c-3.493,0.353-7.202,0-10.71,0
							c-1.818,0-10.997,1.343-11.29-1.567c-0.353-3.493,0-7.201,0-10.709C166.295,232.451,164.952,223.274,167.863,222.98
							c6.353-0.641,6.415-10.647,0-10c-15.493,1.563-11.568,20.959-11.568,31.998c0,15.489,22.12,11.567,32,11.567
							c15.487,0,11.565-22.118,11.565-31.997c0-15.49-22.115-11.568-31.997-11.568C161.415,212.98,161.415,222.98,167.863,222.98z"
							/>
					</g>
				</g>
				<g>
					<g>
						<path fill="#E4DFDA" d="M221.86,222.98c3.57,0,7.14,0,10.71,0c1.82,0,10.995-1.344,11.288,1.568c0.352,3.493,0,7.201,0,10.709
							c0,1.817,1.343,10.995-1.566,11.288c-3.493,0.352-7.202,0-10.71,0c-1.819,0-10.995,1.343-11.288-1.567
							c-0.353-3.493,0-7.201,0-10.709C220.294,232.452,218.951,223.273,221.86,222.98c6.353-0.641,6.415-10.647,0-10
							c-15.491,1.563-11.566,20.96-11.566,31.998c0,15.489,22.117,11.567,31.998,11.567c15.488,0,11.566-22.116,11.566-31.997
							c0-15.49-22.116-11.568-31.998-11.568C215.412,212.98,215.412,222.98,221.86,222.98z"/>
					</g>
				</g>
				<g>
					<g>
						<path fill="#E4DFDA" d="M275.856,222.98c3.569,0,7.14,0,10.709,0c1.819,0,10.995-1.344,11.289,1.568
							c0.353,3.493,0,7.201,0,10.709c0,1.819,1.344,10.994-1.568,11.288c-3.493,0.353-7.201,0-10.709,0
							c-1.818,0-10.995,1.343-11.289-1.567c-0.353-3.493,0-7.201,0-10.709C274.288,232.45,272.944,223.274,275.856,222.98
							c6.353-0.641,6.415-10.646,0-10c-15.492,1.563-11.568,20.959-11.568,31.998c0,15.488,22.118,11.567,31.998,11.567
							c15.489,0,11.568-22.116,11.568-31.997c0-15.489-22.117-11.568-31.998-11.568C269.408,212.98,269.408,222.98,275.856,222.98z"
							/>
					</g>
				</g>
				<g>
					<g>
						<path fill="#E4DFDA" d="M329.854,222.98c3.569,0,7.14,0,10.709,0c1.818,0,10.995-1.344,11.289,1.568
							c0.353,3.493,0,7.201,0,10.709c0,1.819,1.344,10.994-1.568,11.288c-3.493,0.353-7.201,0-10.709,0
							c-1.817,0-10.997,1.343-11.291-1.567c-0.353-3.493,0-7.201,0-10.709C328.284,232.448,326.939,223.274,329.854,222.98
							c6.353-0.641,6.415-10.646,0-10c-8.68,0.875-11.57,7.114-11.57,14.948c0,5.683,0,11.366,0,17.05
							c0,15.488,22.12,11.567,32,11.567c15.489,0,11.568-22.116,11.568-31.997c0-15.489-22.117-11.568-31.998-11.568
							C323.406,212.98,323.406,222.98,329.854,222.98z"/>
					</g>
				</g>
			</g>
			<g>
				<g>
					<g>
						<path fill="#E4DFDA" d="M167.863,268.22c3.57,0,7.14,0,10.71,0c1.821,0,10.993-1.345,11.287,1.569
							c0.352,3.494,0,7.202,0,10.71c0,1.818,1.343,10.994-1.565,11.287c-3.493,0.353-7.202,0-10.71,0
							c-1.814,0-10.997,1.342-11.29-1.564c-0.353-3.493,0-7.202,0-10.711C166.295,277.692,164.952,268.514,167.863,268.22
							c6.353-0.641,6.415-10.647,0-10c-15.493,1.563-11.568,20.963-11.568,32.002c0,15.486,22.122,11.564,32,11.564
							c15.487,0,11.565-22.117,11.565-31.997c0-15.491-22.114-11.569-31.997-11.569C161.415,258.22,161.415,268.22,167.863,268.22z"
							/>
					</g>
				</g>
				<g>
					<g>
						<path fill="#E4DFDA" d="M221.86,268.22c3.57,0,7.14,0,10.71,0c1.821,0,10.995-1.344,11.288,1.569c0.352,3.494,0,7.202,0,10.71
							c0,1.819,1.343,10.994-1.566,11.287c-3.493,0.352-7.202,0-10.71,0c-1.815,0-10.995,1.342-11.288-1.564
							c-0.353-3.493,0-7.202,0-10.711C220.294,277.694,218.951,268.513,221.86,268.22c6.353-0.641,6.415-10.647,0-10
							c-15.491,1.563-11.566,20.964-11.566,32.002c0,15.486,22.119,11.564,31.998,11.564c15.489,0,11.566-22.116,11.566-31.997
							c0-15.491-22.115-11.569-31.998-11.569C215.412,258.22,215.412,268.22,221.86,268.22z"/>
					</g>
				</g>
				<g>
					<g>
						<path fill="#E4DFDA" d="M275.856,268.22c3.569,0,7.14,0,10.709,0c1.82,0,10.995-1.344,11.289,1.569
							c0.353,3.493,0,7.202,0,10.71c0,1.821,1.344,10.993-1.568,11.287c-3.493,0.352-7.201,0-10.709,0
							c-1.814,0-10.996,1.342-11.289-1.564c-0.353-3.493,0-7.202,0-10.711C274.288,277.692,272.944,268.514,275.856,268.22
							c6.353-0.641,6.415-10.647,0-10c-15.493,1.563-11.568,20.963-11.568,32.002c0,15.485,22.12,11.564,31.998,11.564
							c15.49,0,11.568-22.115,11.568-31.997c0-15.49-22.116-11.569-31.998-11.569C269.408,258.22,269.408,268.22,275.856,268.22z"/>
					</g>
				</g>
				<g>
					<g>
						<path fill="#E4DFDA" d="M329.854,268.22c3.569,0,7.14,0,10.709,0c1.819,0,10.995-1.344,11.289,1.569
							c0.353,3.493,0,7.202,0,10.71c0,1.82,1.345,10.993-1.568,11.287c-3.493,0.353-7.201,0-10.709,0
							c-1.814,0-10.998,1.341-11.291-1.564c-0.353-3.493,0-7.202,0-10.711C328.284,277.69,326.939,268.514,329.854,268.22
							c6.353-0.641,6.415-10.646,0-10c-15.495,1.563-11.57,20.961-11.57,32.002c0,15.485,22.122,11.564,32,11.564
							c15.49,0,11.568-22.116,11.568-31.997c0-15.49-22.117-11.569-31.998-11.569C323.406,258.22,323.406,268.22,329.854,268.22z"/>
					</g>
				</g>
			</g>
			<g>
				<g>
					<path fill="#E4DFDA" d="M184.023,114.249c-0.413,7.675-11.477,7.674-11.89,0C171.721,106.573,183.612,106.616,184.023,114.249
						c0.346,6.413,10.347,6.447,10,0c-0.485-9.01-6.937-15.458-15.946-15.943c-8.988-0.483-15.498,7.664-15.943,15.943
						c-0.484,8.988,7.662,15.501,15.943,15.947c8.991,0.484,15.501-7.665,15.946-15.947
						C194.37,107.802,184.368,107.836,184.023,114.249z"/>
				</g>
			</g>
			<g>
				<path fill-rule="evenodd" clip-rule="evenodd" fill="#E4DFDA" d="M178.077,70.47L178.077,70.47c3.024,0,5.474,2.45,5.474,5.474
					v32.833c0,3.023-2.449,5.473-5.474,5.473l0,0c-3.021,0-5.47-2.449-5.47-5.473V75.943C172.607,72.92,175.057,70.47,178.077,70.47
					z"/>
				<g>
					<path fill="#E4DFDA" d="M178.077,75.47c1.059,0.122,1.058,33.658,0,33.779c-0.713,0.082-0.47-15.705-0.47-16.889
						C177.607,90.987,176.802,75.617,178.077,75.47c6.328-0.729,6.399-10.738,0-10c-13.521,1.559-10.47,17.077-10.47,26.89
						s-3.052,25.331,10.47,26.889c6.636,0.765,10.474-6.206,10.474-11.777c0-5.038,0-10.075,0-15.112
						c0-9.816,3.052-25.333-10.474-26.89C171.677,64.733,171.749,74.741,178.077,75.47z"/>
				</g>
			</g>
			<g>
				<g>
					<path fill="#E4DFDA" d="M238.022,114.249c-0.413,7.674-11.478,7.675-11.891,0C225.719,106.573,237.611,106.617,238.022,114.249
						c0.346,6.413,10.348,6.447,10,0c-0.485-9.008-6.938-15.458-15.945-15.943c-8.989-0.484-15.499,7.662-15.945,15.943
						c-0.484,8.99,7.663,15.501,15.945,15.947c8.989,0.484,15.499-7.667,15.945-15.947
						C248.369,107.802,238.368,107.836,238.022,114.249z"/>
				</g>
			</g>
			<g>
				<path fill-rule="evenodd" clip-rule="evenodd" fill="#E4DFDA" d="M232.077,70.47L232.077,70.47c3.021,0,5.473,2.45,5.473,5.474
					v32.833c0,3.023-2.451,5.473-5.473,5.473l0,0c-3.023,0-5.475-2.449-5.475-5.473V75.943
					C226.603,72.92,229.054,70.47,232.077,70.47z"/>
				<g>
					<path fill="#E4DFDA" d="M232.077,75.47c1.058,0.122,1.057,33.658,0,33.779c-0.724,0.083-0.475-15.702-0.475-16.889
						C231.603,90.982,230.792,75.618,232.077,75.47c6.329-0.729,6.399-10.737,0-10c-13.526,1.558-10.475,17.073-10.475,26.89
						c0,9.816-3.052,25.332,10.475,26.889c6.635,0.764,10.473-6.206,10.473-11.777c0-5.038,0-10.075,0-15.112
						c0-9.815,3.052-25.332-10.473-26.89C225.678,64.732,225.748,74.741,232.077,75.47z"/>
				</g>
			</g>
			<g>
				<g>
					<path fill="#E4DFDA" d="M292.017,114.249c-0.413,7.674-11.476,7.674-11.889,0C279.715,106.573,291.605,106.616,292.017,114.249
						c0.346,6.413,10.347,6.447,10,0c-0.485-9.008-6.936-15.458-15.943-15.943c-8.989-0.484-15.499,7.662-15.945,15.943
						c-0.484,8.99,7.663,15.501,15.945,15.947c8.989,0.484,15.497-7.667,15.943-15.947
						C302.363,107.802,292.361,107.836,292.017,114.249z"/>
				</g>
			</g>
			<g>
				<path fill-rule="evenodd" clip-rule="evenodd" fill="#E4DFDA" d="M286.073,70.47L286.073,70.47c3.021,0,5.469,2.45,5.469,5.474
					v32.833c0,3.023-2.447,5.473-5.469,5.473l0,0c-3.021,0-5.473-2.449-5.473-5.473V75.943
					C280.601,72.92,283.052,70.47,286.073,70.47z"/>
				<g>
					<path fill="#E4DFDA" d="M286.073,75.47c1.051,0.121,1.05,33.658,0,33.779c-0.719,0.083-0.473-15.703-0.473-16.889
						C285.601,90.984,284.792,75.617,286.073,75.47c6.329-0.729,6.399-10.737,0-10c-13.524,1.558-10.473,17.075-10.473,26.89
						s-3.052,25.332,10.473,26.889c6.635,0.764,10.469-6.208,10.469-11.777c0-5.038,0-10.075,0-15.112
						c0-9.813,3.052-25.332-10.469-26.89C279.674,64.732,279.744,74.74,286.073,75.47z"/>
				</g>
			</g>
			<g>
				<g>
					<path fill="#E4DFDA" d="M346.013,114.249c-0.413,7.675-11.478,7.674-11.891,0C333.709,106.574,345.602,106.616,346.013,114.249
						c0.346,6.413,10.347,6.447,10,0c-0.485-9.009-6.937-15.458-15.945-15.943c-8.988-0.484-15.499,7.663-15.945,15.943
						c-0.484,8.989,7.664,15.501,15.945,15.947c8.99,0.484,15.499-7.666,15.945-15.947
						C356.359,107.802,346.357,107.836,346.013,114.249z"/>
				</g>
			</g>
			<g>
				<path fill-rule="evenodd" clip-rule="evenodd" fill="#E4DFDA" d="M340.067,70.47L340.067,70.47c3.021,0,5.473,2.45,5.473,5.474
					v32.833c0,3.023-2.451,5.473-5.473,5.473l0,0c-3.021,0-5.473-2.449-5.473-5.473V75.943
					C334.595,72.92,337.046,70.47,340.067,70.47z"/>
				<g>
					<path fill="#E4DFDA" d="M340.067,75.47c1.058,0.122,1.057,33.658,0,33.779c-0.719,0.083-0.473-15.703-0.473-16.889
						C339.595,90.984,338.786,75.617,340.067,75.47c6.329-0.729,6.399-10.737,0-10c-13.524,1.558-10.473,17.075-10.473,26.89
						s-3.052,25.332,10.473,26.889c6.635,0.764,10.473-6.207,10.473-11.777c0-5.038,0-10.075,0-15.112
						c0-9.815,3.052-25.332-10.473-26.89C333.668,64.732,333.738,74.741,340.067,75.47z"/>
				</g>
			</g>
			<g>
				<g>
					<path fill="#E4DFDA" d="M149.621,93.769c48.111,0,96.223,0,144.333,0c23.257,0,46.513,0,69.77,0c1.569,0,3.138,0,4.706,0
						c9.283,0,16.985,7.613,16.985,16.922c0,12.665,0,25.329,0,37.994c0,1.918,0,3.837,0,5.756c1.667-1.667,3.333-3.333,5-5
						c-44.612,0-89.224,0-133.836,0c-42.949,0-85.899,0-128.849,0c1.667,1.667,3.333,3.333,5,5c0-10.512,0-21.023,0-31.535
						c0-4.042,0-8.084,0-12.126C132.73,101.294,140.312,94.058,149.621,93.769c6.433-0.2,6.452-10.201,0-10
						c-10.798,0.336-20.474,6.38-24.734,16.456c-2.419,5.722-2.156,11.607-2.156,17.654c0,12.188,0,24.375,0,36.562
						c0,2.726,2.274,5,5,5c44.612,0,89.224,0,133.836,0c42.949,0,85.899,0,128.849,0c2.726,0,5-2.274,5-5
						c0-12.436,0-24.872,0-37.308c0-6.371-0.11-12.069-2.667-18.117c-3.938-9.31-14.385-15.247-24.246-15.247
						c-16.684,0-33.367,0-50.052,0c-54.883,0-109.766,0-164.648,0c-1.394,0-2.788,0-4.181,0
						C143.172,83.769,143.172,93.769,149.621,93.769z"/>
				</g>
			</g>
		</g>
	</g>
</g>
</svg>
