<?xml version="1.0" encoding="utf-8"?>
<!-- Generator: Adobe Illustrator 16.0.0, SVG Export Plug-In . SVG Version: 6.00 Build 0)  -->
<!DOCTYPE svg PUBLIC "-//W3C//DTD SVG 1.1//EN" "http://www.w3.org/Graphics/SVG/1.1/DTD/svg11.dtd">
<svg version="1.1" id="Layer_1" xmlns="http://www.w3.org/2000/svg" xmlns:xlink="http://www.w3.org/1999/xlink" x="0px" y="0px"
	 width="396.415px" height="338.781px" viewBox="0 0 396.415 338.781" enable-background="new 0 0 396.415 338.781"
	 xml:space="preserve">
<g>
	<g>
		<g>
			<path fill="#CECECA" stroke="#CECECA" stroke-miterlimit="10" d="M165.938,44.104h29.495c2.025,0,3.713,0.514,5.053,1.856
				c1.344,1.341,2.014,2.872,2.014,4.898v40.245h10V50.859c0-4.639-2.002-7.805-5.055-10.858c-3.051-3.052-7.373-3.896-12.012-3.896
				h-29.495c-2.613,0-4.733,1.386-4.733,4S163.325,44.104,165.938,44.104z"/>
			<path fill="#CECECA" stroke="#CECECA" stroke-miterlimit="10" d="M127.5,296.104H17.671c-2.027,0-3.764-1.927-5.104-3.269
				c-1.343-1.342-2.066-4.281-2.066-6.309V50.859c0-2.026,0.724-3.558,2.066-4.898c1.341-1.343,3.077-1.856,5.104-1.856h31.954
				c2.612,0,4.732-1.386,4.732-4s-2.12-4-4.732-4H17.671c-4.641,0-9.013,0.845-12.064,3.896C2.555,43.055,0.5,46.221,0.5,50.859
				v235.668c0,4.64,2.055,9.715,5.106,12.768s7.424,5.81,12.064,5.81H127.5V296.104z"/>
		</g>
		<path fill="#CECECA" stroke="#CECECA" stroke-miterlimit="10" d="M49.543,19.018h35.706c0.847-4.599,3.082-8.711,6.257-11.885
			c4.098-4.098,9.759-6.633,16.012-6.633c6.251,0,11.912,2.535,16.01,6.633c3.174,3.174,5.411,7.286,6.258,11.885h35.909
			c2.613,0,4.731,2.118,4.731,4.731v35.884c0,2.614-2.118,4.733-4.731,4.733H49.543c-2.613,0-4.733-2.119-4.733-4.733V23.749
			C44.81,21.136,46.93,19.018,49.543,19.018L49.543,19.018z M89.617,28.482H54.274v26.419h106.688V28.482h-35.544l-0.128-0.002
			c-2.613-0.07-4.674-2.245-4.604-4.858h0.01c-0.002-0.087-0.004-0.174-0.002-0.262h0.004l-0.003-0.217
			c0-3.64-1.474-6.935-3.859-9.319c-2.384-2.384-5.679-3.859-9.317-3.859c-3.64,0-6.934,1.476-9.32,3.859
			c-2.384,2.385-3.858,5.68-3.858,9.319c0,0.132-0.001,0.211-0.002,0.253c0.009,0.117,0.014,0.234,0.014,0.353
			C94.351,26.363,92.231,28.482,89.617,28.482L89.617,28.482z M94.32,23.229l0.001,0.008C94.321,23.227,94.32,23.223,94.32,23.229
			L94.32,23.229z M120.711,23.336c0.003-0.209,0-0.074-0.005,0.024h0.005V23.336L120.711,23.336z"/>
		<path fill="#CECECA" stroke="#CECECA" stroke-miterlimit="10" d="M112.351,22.207c0-2.613-2.119-4.731-4.731-4.731
			c-2.615,0-4.733,2.118-4.733,4.731v1.597c0,2.613,2.118,4.732,4.733,4.732c2.612,0,4.731-2.119,4.731-4.732V22.207z"/>
		<path fill="#CECECA" stroke="#CECECA" stroke-miterlimit="10" d="M28.672,110.569h44.495c2.612,0,4.732,2.118,4.732,4.732v44.494
			c0,2.614-2.12,4.732-4.732,4.732H28.672c-2.613,0-4.731-2.118-4.731-4.732v-44.494C23.94,112.688,26.059,110.569,28.672,110.569
			L28.672,110.569z M68.434,120.034H33.404v35.029h35.029V120.034z"/>
		<path fill="#CECECA" stroke="#CECECA" stroke-miterlimit="10" d="M43.207,135.92c-1.674-1.991-4.646-2.248-6.636-0.573
			c-1.991,1.674-2.249,4.646-0.574,6.637l5.659,6.724l3.604-3.033l-3.62,3.047c1.683,2,4.669,2.257,6.669,0.574l0.039-0.034
			l17.023-14.655c1.981-1.704,2.205-4.691,0.501-6.673c-1.706-1.981-4.694-2.204-6.676-0.498l-13.412,11.545L43.207,135.92z"/>
		<path fill="#CECECA" stroke="#CECECA" stroke-miterlimit="10" d="M28.672,193.753h44.495c2.612,0,4.732,2.119,4.732,4.734v44.49
			c0,2.614-2.12,4.732-4.732,4.732H28.672c-2.613,0-4.731-2.118-4.731-4.732v-44.49C23.94,195.872,26.059,193.753,28.672,193.753
			L28.672,193.753z M68.434,203.219H33.404v35.028h35.029V203.219z"/>
		<path fill="#CECECA" stroke="#CECECA" stroke-miterlimit="10" d="M127.5,123.104H92.418c-2.613,0-4.732,2.386-4.732,5
			s2.119,5,4.732,5H127.5V123.104z"/>
		<path fill="#CECECA" stroke="#CECECA" stroke-miterlimit="10" d="M127.5,145.104H92.418c-2.613,0-4.732,1.887-4.732,4.5
			s2.119,4.5,4.732,4.5H127.5V145.104z"/>
		<path fill="#CECECA" stroke="#CECECA" stroke-miterlimit="10" d="M127.5,206.104H92.418c-2.613,0-4.732,2.387-4.732,5
			s2.119,5,4.732,5H127.5V206.104z"/>
		<path fill="#CECECA" stroke="#CECECA" stroke-miterlimit="10" d="M127.5,229.104H92.418c-2.613,0-4.732,2.887-4.732,5.5
			s2.119,5.5,4.732,5.5H127.5V229.104z"/>
		<g>
			<g>
				<g>
					<path fill="#CECECA" d="M150.621,94.269c48.111,0,96.223,0,144.333,0c23.257,0,46.513,0,69.77,0c1.569,0,3.138,0,4.706,0
						c9.265,0,16.985,7.599,16.985,16.899c0,5.107,0,10.215,0,15.323c0,56.854,0,113.706,0,170.56c0,4.924,0,9.848,0,14.771
						c0,9.339-7.762,16.89-17.039,16.89c-1.659,0-3.318,0-4.979,0c-23.465,0-46.931,0-70.396,0c-31.949,0-63.897,0-95.846,0
						c-16.283,0-32.642,0.463-48.92-0.043c-8.855-0.275-15.506-8.646-15.506-17.083c0-1.903,0-3.807,0-5.71
						c0-9.942,0-19.885,0-29.826c0-31.547,0-63.094,0-94.64c0-18.492,0-36.985,0-55.478c0-4.442,0-8.884,0-13.326
						C133.73,102.674,140.291,94.59,150.621,94.269c6.433-0.2,6.452-10.201,0-10c-16.214,0.504-26.891,13.259-26.891,28.96
						c0,8.009,0,16.019,0,24.028c0,30.552,0,61.104,0,91.655c0,25.401,0,50.803,0,76.203c0,9.982,0.924,19.164,8.816,26.607
						c7.116,6.71,15.967,6.989,24.979,6.989c56.2,0,112.401,0,168.602,0c10.9,0,21.8,0,32.7,0c6.191,0,12.684,0.507,18.694-1.213
						c13.394-3.831,18.893-16.544,18.893-29.301c0-8.932,0-17.864,0-26.797c0-55.229,0-110.457,0-165.687
						c0-11.978-3.655-23.032-15.246-28.779c-6.569-3.257-13.902-2.667-20.994-2.667c-25.603,0-51.204,0-76.807,0
						c-44.249,0-88.498,0-132.747,0C144.172,84.269,144.172,94.269,150.621,94.269z"/>
				</g>
			</g>
			<g>
				<g>
					<g>
						<path fill="#CECECA" d="M168.863,178.241c3.57,0,7.14,0,10.71,0c1.819,0,10.994-1.344,11.287,1.567
							c0.353,3.493,0,7.202,0,10.71c0,1.816,1.342,10.995-1.565,11.288c-3.493,0.353-7.202,0-10.71,0
							c-1.816,0-10.997,1.343-11.29-1.566c-0.353-3.493,0-7.202,0-10.71C167.295,187.711,165.951,178.535,168.863,178.241
							c6.353-0.641,6.415-10.647,0-10c-15.493,1.563-11.568,20.96-11.568,31.999c0,15.488,22.121,11.566,32,11.566
							c15.487,0,11.565-22.118,11.565-31.998c0-15.489-22.116-11.567-31.997-11.567
							C162.414,168.241,162.414,178.241,168.863,178.241z"/>
					</g>
				</g>
				<g>
					<g>
						<path fill="#CECECA" d="M222.86,178.241c3.57,0,7.14,0,10.71,0c1.819,0,10.995-1.343,11.288,1.567
							c0.352,3.493,0,7.202,0,10.71c0,1.818,1.343,10.995-1.566,11.288c-3.493,0.353-7.202,0-10.71,0
							c-1.817,0-10.995,1.343-11.288-1.566c-0.353-3.493,0-7.202,0-10.71C221.294,187.713,219.951,178.534,222.86,178.241
							c6.353-0.641,6.415-10.646,0-10c-15.491,1.563-11.566,20.961-11.566,31.999c0,15.488,22.118,11.566,31.998,11.566
							c15.488,0,11.566-22.117,11.566-31.998c0-15.489-22.116-11.567-31.998-11.567C216.412,168.241,216.412,178.241,222.86,178.241
							z"/>
					</g>
				</g>
				<g>
					<g>
						<path fill="#CECECA" d="M276.856,178.241c3.569,0,7.14,0,10.709,0c1.817,0,10.995-1.343,11.289,1.567
							c0.353,3.493,0,7.202,0,10.71c0,1.819,1.344,10.994-1.568,11.288c-3.493,0.353-7.201,0-10.709,0
							c-1.817,0-10.995,1.343-11.289-1.566c-0.353-3.493,0-7.202,0-10.71C275.288,187.711,273.944,178.535,276.856,178.241
							c6.353-0.641,6.415-10.646,0-10c-15.493,1.563-11.568,20.96-11.568,31.999c0,15.487,22.118,11.566,31.998,11.566
							c15.49,0,11.568-22.116,11.568-31.998c0-15.488-22.118-11.567-31.998-11.567C270.408,168.241,270.408,178.241,276.856,178.241
							z"/>
					</g>
				</g>
				<g>
					<g>
						<path fill="#CECECA" d="M330.854,178.241c3.569,0,7.14,0,10.709,0c1.817,0,10.995-1.343,11.289,1.567
							c0.353,3.493,0,7.202,0,10.71c0,1.819,1.344,10.994-1.568,11.288c-3.493,0.353-7.201,0-10.709,0
							c-1.816,0-10.998,1.342-11.291-1.566c-0.353-3.493,0-7.202,0-10.71C329.284,187.709,327.939,178.535,330.854,178.241
							c6.353-0.641,6.415-10.646,0-10c-8.679,0.875-11.57,7.113-11.57,14.947c0,5.684,0,11.368,0,17.052
							c0,15.487,22.12,11.566,32,11.566c15.49,0,11.568-22.117,11.568-31.998c0-15.488-22.118-11.567-31.998-11.567
							C324.406,168.241,324.406,178.241,330.854,178.241z"/>
					</g>
				</g>
			</g>
			<g>
				<g>
					<g>
						<path fill="#CECECA" d="M168.863,223.48c3.57,0,7.14,0,10.71,0c1.82,0,10.994-1.344,11.287,1.568
							c0.352,3.493,0,7.201,0,10.709c0,1.816,1.342,10.995-1.565,11.288c-3.493,0.353-7.202,0-10.71,0
							c-1.818,0-10.996,1.343-11.29-1.567c-0.353-3.493,0-7.201,0-10.709C167.295,232.951,165.951,223.774,168.863,223.48
							c6.353-0.641,6.415-10.647,0-10c-15.492,1.563-11.568,20.959-11.568,31.998c0,15.489,22.12,11.567,32,11.567
							c15.487,0,11.565-22.118,11.565-31.997c0-15.49-22.115-11.568-31.997-11.568C162.414,213.48,162.414,223.48,168.863,223.48z"
							/>
					</g>
				</g>
				<g>
					<g>
						<path fill="#CECECA" d="M222.86,223.48c3.57,0,7.14,0,10.71,0c1.82,0,10.995-1.344,11.288,1.568c0.352,3.493,0,7.201,0,10.709
							c0,1.817,1.343,10.995-1.566,11.288c-3.493,0.352-7.202,0-10.71,0c-1.819,0-10.995,1.343-11.288-1.567
							c-0.353-3.493,0-7.201,0-10.709C221.294,232.952,219.951,223.773,222.86,223.48c6.353-0.641,6.415-10.647,0-10
							c-15.491,1.563-11.566,20.96-11.566,31.998c0,15.489,22.117,11.567,31.998,11.567c15.488,0,11.566-22.116,11.566-31.997
							c0-15.49-22.116-11.568-31.998-11.568C216.412,213.48,216.412,223.48,222.86,223.48z"/>
					</g>
				</g>
				<g>
					<g>
						<path fill="#CECECA" d="M276.856,223.48c3.569,0,7.14,0,10.709,0c1.819,0,10.995-1.344,11.289,1.568
							c0.353,3.493,0,7.201,0,10.709c0,1.819,1.344,10.994-1.568,11.288c-3.493,0.353-7.201,0-10.709,0
							c-1.818,0-10.995,1.343-11.289-1.567c-0.353-3.493,0-7.201,0-10.709C275.288,232.95,273.944,223.774,276.856,223.48
							c6.353-0.641,6.415-10.646,0-10c-15.492,1.563-11.568,20.959-11.568,31.998c0,15.488,22.118,11.567,31.998,11.567
							c15.489,0,11.568-22.116,11.568-31.997c0-15.489-22.117-11.568-31.998-11.568C270.408,213.48,270.408,223.48,276.856,223.48z"
							/>
					</g>
				</g>
				<g>
					<g>
						<path fill="#CECECA" d="M330.854,223.48c3.569,0,7.14,0,10.709,0c1.818,0,10.995-1.344,11.289,1.568
							c0.353,3.493,0,7.201,0,10.709c0,1.819,1.344,10.994-1.568,11.288c-3.493,0.353-7.201,0-10.709,0
							c-1.817,0-10.997,1.343-11.291-1.567c-0.353-3.493,0-7.201,0-10.709C329.284,232.948,327.939,223.774,330.854,223.48
							c6.353-0.641,6.415-10.646,0-10c-8.68,0.875-11.57,7.114-11.57,14.948c0,5.683,0,11.366,0,17.05
							c0,15.488,22.12,11.567,32,11.567c15.489,0,11.568-22.116,11.568-31.997c0-15.489-22.117-11.568-31.998-11.568
							C324.406,213.48,324.406,223.48,330.854,223.48z"/>
					</g>
				</g>
			</g>
			<g>
				<g>
					<g>
						<path fill="#CECECA" d="M168.863,268.72c3.57,0,7.14,0,10.71,0c1.821,0,10.993-1.345,11.287,1.569
							c0.352,3.494,0,7.202,0,10.71c0,1.818,1.343,10.994-1.565,11.287c-3.493,0.353-7.202,0-10.71,0
							c-1.814,0-10.997,1.342-11.29-1.564c-0.353-3.493,0-7.202,0-10.711C167.295,278.192,165.951,269.014,168.863,268.72
							c6.353-0.641,6.415-10.647,0-10c-15.493,1.563-11.568,20.963-11.568,32.002c0,15.486,22.122,11.564,32,11.564
							c15.488,0,11.565-22.117,11.565-31.997c0-15.491-22.114-11.569-31.997-11.569C162.414,258.72,162.414,268.72,168.863,268.72z"
							/>
					</g>
				</g>
				<g>
					<g>
						<path fill="#CECECA" d="M222.86,268.72c3.57,0,7.14,0,10.71,0c1.821,0,10.994-1.344,11.288,1.569c0.352,3.494,0,7.202,0,10.71
							c0,1.819,1.343,10.994-1.566,11.287c-3.493,0.352-7.202,0-10.71,0c-1.815,0-10.995,1.342-11.288-1.564
							c-0.353-3.493,0-7.202,0-10.711C221.294,278.194,219.951,269.013,222.86,268.72c6.353-0.641,6.415-10.647,0-10
							c-15.491,1.563-11.566,20.964-11.566,32.002c0,15.486,22.119,11.564,31.998,11.564c15.489,0,11.566-22.116,11.566-31.997
							c0-15.491-22.115-11.569-31.998-11.569C216.412,258.72,216.412,268.72,222.86,268.72z"/>
					</g>
				</g>
				<g>
					<g>
						<path fill="#CECECA" d="M276.856,268.72c3.569,0,7.14,0,10.709,0c1.82,0,10.995-1.344,11.289,1.569
							c0.353,3.493,0,7.202,0,10.71c0,1.821,1.344,10.993-1.568,11.287c-3.493,0.352-7.201,0-10.709,0
							c-1.814,0-10.996,1.342-11.289-1.564c-0.353-3.493,0-7.202,0-10.711C275.288,278.192,273.944,269.014,276.856,268.72
							c6.353-0.641,6.415-10.647,0-10c-15.493,1.563-11.568,20.963-11.568,32.002c0,15.485,22.12,11.564,31.998,11.564
							c15.49,0,11.568-22.115,11.568-31.997c0-15.49-22.116-11.569-31.998-11.569C270.408,258.72,270.408,268.72,276.856,268.72z"/>
					</g>
				</g>
				<g>
					<g>
						<path fill="#CECECA" d="M330.854,268.72c3.569,0,7.14,0,10.709,0c1.819,0,10.995-1.344,11.289,1.569
							c0.353,3.493,0,7.202,0,10.71c0,1.82,1.345,10.993-1.568,11.287c-3.493,0.353-7.201,0-10.709,0
							c-1.814,0-10.998,1.341-11.291-1.564c-0.353-3.493,0-7.202,0-10.711C329.284,278.19,327.939,269.014,330.854,268.72
							c6.353-0.641,6.415-10.646,0-10c-15.495,1.563-11.57,20.961-11.57,32.002c0,15.485,22.122,11.564,32,11.564
							c15.49,0,11.568-22.116,11.568-31.997c0-15.49-22.117-11.569-31.998-11.569C324.406,258.72,324.406,268.72,330.854,268.72z"/>
					</g>
				</g>
			</g>
			<g>
				<path fill-rule="evenodd" clip-rule="evenodd" fill="#CECECA" d="M190.023,114.749c0,6.047-4.898,10.947-10.946,10.947
					c-6.042,0-10.943-4.9-10.943-10.947c0-6.045,4.901-10.943,10.943-10.943C185.125,103.806,190.023,108.704,190.023,114.749z"/>
				<g>
					<path fill="#CECECA" d="M185.023,114.749c-0.413,7.675-11.477,7.675-11.89,0C172.721,107.073,184.612,107.116,185.023,114.749
						c0.346,6.413,10.347,6.447,10,0c-0.485-9.01-6.937-15.459-15.946-15.943c-8.987-0.483-15.497,7.664-15.943,15.943
						c-0.484,8.988,7.662,15.501,15.943,15.947c8.991,0.484,15.501-7.665,15.946-15.947
						C195.37,108.302,185.368,108.336,185.023,114.749z"/>
				</g>
			</g>
			<g>
				<path fill-rule="evenodd" clip-rule="evenodd" fill="#CECECA" d="M179.077,70.97L179.077,70.97c3.024,0,5.474,2.45,5.474,5.474
					v32.833c0,3.023-2.449,5.473-5.474,5.473l0,0c-3.021,0-5.47-2.449-5.47-5.473V76.443C173.607,73.42,176.057,70.97,179.077,70.97
					z"/>
				<g>
					<path fill="#CECECA" d="M179.077,75.97c1.059,0.122,1.058,33.657,0,33.779c-0.713,0.082-0.47-15.705-0.47-16.889
						C178.607,91.487,177.802,76.117,179.077,75.97c6.328-0.729,6.399-10.737,0-10c-13.521,1.559-10.47,17.076-10.47,26.891
						c0,9.813-3.052,25.331,10.47,26.889c6.636,0.765,10.474-6.205,10.474-11.777c0-5.037,0-10.074,0-15.111
						c0-9.816,3.052-25.334-10.474-26.891C172.678,65.233,172.748,75.241,179.077,75.97z"/>
				</g>
			</g>
			<g>
				<circle fill-rule="evenodd" clip-rule="evenodd" fill="#CECECA" cx="233.077" cy="114.749" r="10.945"/>
				<g>
					<path fill="#CECECA" d="M239.022,114.749c-0.413,7.674-11.478,7.675-11.891,0C226.719,107.072,238.611,107.116,239.022,114.749
						c0.346,6.413,10.348,6.447,10,0c-0.485-9.008-6.938-15.458-15.945-15.943c-8.989-0.484-15.499,7.662-15.945,15.943
						c-0.484,8.99,7.663,15.501,15.945,15.947c8.989,0.484,15.499-7.667,15.945-15.947
						C249.369,108.302,239.368,108.336,239.022,114.749z"/>
				</g>
			</g>
			<g>
				<path fill-rule="evenodd" clip-rule="evenodd" fill="#CECECA" d="M233.077,70.97L233.077,70.97c3.021,0,5.473,2.45,5.473,5.474
					v32.833c0,3.023-2.451,5.473-5.473,5.473l0,0c-3.023,0-5.475-2.449-5.475-5.473V76.443
					C227.603,73.42,230.054,70.97,233.077,70.97z"/>
				<g>
					<path fill="#CECECA" d="M233.077,75.97c1.058,0.122,1.057,33.657,0,33.779c-0.724,0.083-0.475-15.702-0.475-16.889
						C232.603,91.482,231.792,76.118,233.077,75.97c6.329-0.729,6.399-10.737,0-10c-13.526,1.558-10.475,17.073-10.475,26.891
						c0,9.816-3.052,25.332,10.475,26.889c6.635,0.764,10.473-6.206,10.473-11.777c0-5.037,0-10.074,0-15.111
						c0-9.816,3.052-25.332-10.473-26.891C226.678,65.232,226.748,75.24,233.077,75.97z"/>
				</g>
			</g>
			<g>
				<circle fill-rule="evenodd" clip-rule="evenodd" fill="#CECECA" cx="287.072" cy="114.749" r="10.944"/>
				<g>
					<path fill="#CECECA" d="M293.017,114.749c-0.413,7.675-11.476,7.675-11.889,0C280.715,107.073,292.605,107.116,293.017,114.749
						c0.346,6.413,10.347,6.447,10,0c-0.485-9.008-6.936-15.458-15.943-15.943c-8.989-0.484-15.499,7.662-15.945,15.943
						c-0.484,8.99,7.663,15.501,15.945,15.947c8.989,0.484,15.497-7.667,15.943-15.947
						C303.363,108.302,293.361,108.336,293.017,114.749z"/>
				</g>
			</g>
			<g>
				<path fill-rule="evenodd" clip-rule="evenodd" fill="#CECECA" d="M287.073,70.97L287.073,70.97c3.021,0,5.469,2.45,5.469,5.474
					v32.833c0,3.023-2.447,5.473-5.469,5.473l0,0c-3.021,0-5.473-2.449-5.473-5.473V76.443
					C281.601,73.42,284.052,70.97,287.073,70.97z"/>
				<g>
					<path fill="#CECECA" d="M287.073,75.97c1.051,0.121,1.05,33.658,0,33.779c-0.719,0.083-0.473-15.703-0.473-16.889
						C286.601,91.484,285.792,76.117,287.073,75.97c6.329-0.729,6.399-10.737,0-10c-13.524,1.559-10.473,17.074-10.473,26.891
						c0,9.814-3.052,25.331,10.473,26.889c6.635,0.764,10.469-6.207,10.469-11.777c0-5.037,0-10.074,0-15.111
						c0-9.813,3.052-25.332-10.469-26.891C280.674,65.232,280.744,75.24,287.073,75.97z"/>
				</g>
			</g>
			<g>
				<circle fill-rule="evenodd" clip-rule="evenodd" fill="#CECECA" cx="341.067" cy="114.749" r="10.945"/>
				<g>
					<path fill="#CECECA" d="M347.013,114.749c-0.413,7.675-11.478,7.674-11.891,0C334.709,107.074,346.602,107.116,347.013,114.749
						c0.346,6.413,10.347,6.447,10,0c-0.485-9.009-6.937-15.458-15.945-15.943c-8.988-0.483-15.499,7.663-15.945,15.943
						c-0.484,8.989,7.664,15.501,15.945,15.947c8.99,0.484,15.499-7.666,15.945-15.947
						C357.359,108.302,347.357,108.336,347.013,114.749z"/>
				</g>
			</g>
			<g>
				<path fill-rule="evenodd" clip-rule="evenodd" fill="#CECECA" d="M341.067,70.97L341.067,70.97c3.021,0,5.473,2.45,5.473,5.474
					v32.833c0,3.023-2.451,5.473-5.473,5.473l0,0c-3.021,0-5.473-2.449-5.473-5.473V76.443
					C335.595,73.42,338.046,70.97,341.067,70.97z"/>
				<g>
					<path fill="#CECECA" d="M341.067,75.97c1.058,0.122,1.057,33.657,0,33.779c-0.719,0.083-0.473-15.703-0.473-16.889
						C340.595,91.484,339.786,76.117,341.067,75.97c6.329-0.729,6.399-10.737,0-10c-13.524,1.559-10.473,17.074-10.473,26.891
						c0,9.814-3.052,25.331,10.473,26.889c6.635,0.764,10.473-6.206,10.473-11.777c0-5.037,0-10.074,0-15.111
						c0-9.816,3.052-25.332-10.473-26.891C334.668,65.232,334.738,75.24,341.067,75.97z"/>
				</g>
			</g>
			<g>
				<g>
					<path fill="#CECECA" d="M150.621,94.269c48.111,0,96.223,0,144.333,0c23.257,0,46.513,0,69.77,0c1.569,0,3.138,0,4.706,0
						c9.283,0,16.985,7.613,16.985,16.923c0,12.664,0,25.328,0,37.993c0,1.918,0,3.837,0,5.756c1.667-1.667,3.333-3.333,5-5
						c-44.612,0-89.224,0-133.836,0c-42.949,0-85.899,0-128.849,0c1.667,1.667,3.333,3.333,5,5c0-10.512,0-21.023,0-31.535
						c0-4.042,0-8.084,0-12.126C133.73,101.794,141.312,94.559,150.621,94.269c6.433-0.2,6.452-10.201,0-10
						c-10.798,0.336-20.474,6.38-24.734,16.456c-2.42,5.722-2.156,11.607-2.156,17.654c0,12.187,0,24.374,0,36.562
						c0,2.726,2.274,5,5,5c44.612,0,89.224,0,133.836,0c42.949,0,85.899,0,128.849,0c2.726,0,5-2.274,5-5
						c0-12.436,0-24.872,0-37.309c0-6.371-0.11-12.068-2.667-18.116c-3.938-9.311-14.385-15.247-24.246-15.247
						c-16.684,0-33.367,0-50.052,0c-54.883,0-109.766,0-164.648,0c-1.394,0-2.787,0-4.181,0
						C144.172,84.269,144.172,94.269,150.621,94.269z"/>
				</g>
			</g>
		</g>
	</g>
</g>
</svg>
